{
    "asset" : {
        "generator" : "Khronos glTF Blender I/O v0.9.36",
        "version" : "2.0"
    },
    "scene" : 0,
    "scenes" : [
        {
            "name" : "Scene",
            "nodes" : [
                0,
                1,
                6
            ]
        }
    ],
    "nodes" : [
        {
            "name" : "Light",
            "rotation" : [
                0.16907575726509094,
                0.7558803558349609,
                -0.27217137813568115,
                0.570947527885437
            ],
            "translation" : [
                4.076245307922363,
                5.903861999511719,
                -1.0054539442062378
            ]
        },
        {
            "name" : "Camera",
            "rotation" : [
                0.483536034822464,
                0.33687159419059753,
                -0.20870360732078552,
                0.7804827094078064
            ],
            "translation" : [
                7.358891487121582,
                4.958309173583984,
                6.925790786743164
            ]
        },
        {
            "name" : "Tail",
            "rotation" : [
                0.029473083093762398,
                0.1590564101934433,
                -0.0036832098849117756,
                0.9868226051330566
            ],
            "scale" : [
                0.9999999403953552,
                0.9999999403953552,
                1
            ],
            "translation" : [
                1.751292444396313e-10,
                0.6689300537109375,
                -6.904883775860071e-09
            ]
        },
        {
            "children" : [
                2
            ],
            "name" : "Bone.001",
            "rotation" : [
                -0.03632975369691849,
                -0.6985262036323547,
                -0.03555351868271828,
                0.7137768268585205
            ],
            "translation" : [
                0,
                1,
                0
            ]
        },
        {
            "children" : [
                3
            ],
            "name" : "Bone"
        },
        {
            "mesh" : 0,
            "name" : "Plane",
            "rotation" : [
                0,
                0,
                0.694953441619873,
                0.7190548181533813
            ],
            "skin" : 0,
            "translation" : [
                0.38808727264404297,
                0.11691969633102417,
                0
            ]
        },
        {
            "children" : [
                5,
                4
            ],
            "name" : "Armature",
            "rotation" : [
                0,
                0,
                -0.694953441619873,
                0.7190547585487366
            ],
            "translation" : [
                -0.12991313636302948,
                0.2181616872549057,
                -0.003110806457698345
            ]
        }
    ],
    "animations" : [
        {
            "channels" : [
                {
                    "sampler" : 0,
                    "target" : {
                        "node" : 4,
                        "path" : "translation"
                    }
                },
                {
                    "sampler" : 1,
                    "target" : {
                        "node" : 4,
                        "path" : "rotation"
                    }
                },
                {
                    "sampler" : 2,
                    "target" : {
                        "node" : 4,
                        "path" : "scale"
                    }
                },
                {
                    "sampler" : 3,
                    "target" : {
                        "node" : 3,
                        "path" : "translation"
                    }
                },
                {
                    "sampler" : 4,
                    "target" : {
                        "node" : 3,
                        "path" : "rotation"
                    }
                },
                {
                    "sampler" : 5,
                    "target" : {
                        "node" : 3,
                        "path" : "scale"
                    }
                },
                {
                    "sampler" : 6,
                    "target" : {
                        "node" : 2,
                        "path" : "translation"
                    }
                },
                {
                    "sampler" : 7,
                    "target" : {
                        "node" : 2,
                        "path" : "rotation"
                    }
                },
                {
                    "sampler" : 8,
                    "target" : {
                        "node" : 2,
                        "path" : "scale"
                    }
                }
            ],
            "name" : "Swimming",
            "samplers" : [
                {
                    "input" : 7,
                    "interpolation" : "CUBICSPLINE",
                    "output" : 8
                },
                {
                    "input" : 9,
                    "interpolation" : "CUBICSPLINE",
                    "output" : 10
                },
                {
                    "input" : 11,
                    "interpolation" : "CUBICSPLINE",
                    "output" : 12
                },
                {
                    "input" : 7,
                    "interpolation" : "CUBICSPLINE",
                    "output" : 13
                },
                {
                    "input" : 9,
                    "interpolation" : "CUBICSPLINE",
                    "output" : 14
                },
                {
                    "input" : 11,
                    "interpolation" : "CUBICSPLINE",
                    "output" : 15
                },
                {
                    "input" : 7,
                    "interpolation" : "CUBICSPLINE",
                    "output" : 16
                },
                {
                    "input" : 9,
                    "interpolation" : "CUBICSPLINE",
                    "output" : 17
                },
                {
                    "input" : 11,
                    "interpolation" : "CUBICSPLINE",
                    "output" : 18
                }
            ]
        }
    ],
    "materials" : [
        {
            "doubleSided" : true,
            "name" : "Material",
            "pbrMetallicRoughness" : {
                "baseColorTexture" : {
                    "index" : 0,
                    "texCoord" : 0
                },
                "metallicFactor" : 0,
                "roughnessFactor" : 0.5
            }
        }
    ],
    "meshes" : [
        {
            "name" : "Plane",
            "primitives" : [
                {
                    "attributes" : {
                        "POSITION" : 0,
                        "NORMAL" : 1,
                        "TEXCOORD_0" : 2,
                        "JOINTS_0" : 3,
                        "WEIGHTS_0" : 4
                    },
                    "indices" : 5,
                    "material" : 0
                }
            ]
        }
    ],
    "textures" : [
        {
            "source" : 0
        }
    ],
    "images" : [
        {
            "bufferView" : 6,
            "mimeType" : "image/png",
            "name" : "whale shark mat"
        }
    ],
    "skins" : [
        {
            "inverseBindMatrices" : 6,
            "joints" : [
                4,
                3,
                2
            ],
            "name" : "Armature"
        }
    ],
    "accessors" : [
        {
            "bufferView" : 0,
            "componentType" : 5126,
            "count" : 1110,
            "max" : [
                2.2861697673797607,
                1.3760850429534912,
                1.041031002998352
            ],
            "min" : [
                -2.3852224349975586,
                -0.2904760241508484,
                -1.041031002998352
            ],
            "type" : "VEC3"
        },
        {
            "bufferView" : 1,
            "componentType" : 5126,
            "count" : 1110,
            "type" : "VEC3"
        },
        {
            "bufferView" : 2,
            "componentType" : 5126,
            "count" : 1110,
            "type" : "VEC2"
        },
        {
            "bufferView" : 3,
            "componentType" : 5123,
            "count" : 1110,
            "type" : "VEC4"
        },
        {
            "bufferView" : 4,
            "componentType" : 5126,
            "count" : 1110,
            "type" : "VEC4"
        },
        {
            "bufferView" : 5,
            "componentType" : 5123,
            "count" : 1668,
            "type" : "SCALAR"
        },
        {
            "bufferView" : 7,
            "componentType" : 5126,
            "count" : 3,
            "type" : "MAT4"
        },
        {
            "bufferView" : 8,
            "componentType" : 5126,
            "count" : 12,
            "max" : [
                1.7916666666666667
            ],
            "min" : [
                0.041666666666666664
            ],
            "type" : "SCALAR"
        },
        {
            "bufferView" : 9,
            "componentType" : 5126,
            "count" : 36,
            "type" : "VEC3"
        },
        {
            "bufferView" : 10,
            "componentType" : 5126,
            "count" : 11,
            "max" : [
                1.7916666666666667
            ],
            "min" : [
                0.041666666666666664
            ],
            "type" : "SCALAR"
        },
        {
            "bufferView" : 11,
            "componentType" : 5126,
            "count" : 33,
            "type" : "VEC4"
        },
        {
            "bufferView" : 12,
            "componentType" : 5126,
            "count" : 2,
            "max" : [
                1.6666666666666667
            ],
            "min" : [
                1.125
            ],
            "type" : "SCALAR"
        },
        {
            "bufferView" : 13,
            "componentType" : 5126,
            "count" : 6,
            "type" : "VEC3"
        },
        {
            "bufferView" : 14,
            "componentType" : 5126,
            "count" : 36,
            "type" : "VEC3"
        },
        {
            "bufferView" : 15,
            "componentType" : 5126,
            "count" : 33,
            "type" : "VEC4"
        },
        {
            "bufferView" : 16,
            "componentType" : 5126,
            "count" : 6,
            "type" : "VEC3"
        },
        {
            "bufferView" : 17,
            "componentType" : 5126,
            "count" : 36,
            "type" : "VEC3"
        },
        {
            "bufferView" : 18,
            "componentType" : 5126,
            "count" : 33,
            "type" : "VEC4"
        },
        {
            "bufferView" : 19,
            "componentType" : 5126,
            "count" : 6,
            "type" : "VEC3"
        }
    ],
    "bufferViews" : [
        {
            "buffer" : 0,
            "byteLength" : 13320,
            "byteOffset" : 0
        },
        {
            "buffer" : 0,
            "byteLength" : 13320,
            "byteOffset" : 13320
        },
        {
            "buffer" : 0,
            "byteLength" : 8880,
            "byteOffset" : 26640
        },
        {
            "buffer" : 0,
            "byteLength" : 8880,
            "byteOffset" : 35520
        },
        {
            "buffer" : 0,
            "byteLength" : 17760,
            "byteOffset" : 44400
        },
        {
            "buffer" : 0,
            "byteLength" : 3336,
            "byteOffset" : 62160
        },
        {
            "buffer" : 0,
            "byteLength" : 267829,
            "byteOffset" : 65496
        },
        {
            "buffer" : 0,
            "byteLength" : 192,
            "byteOffset" : 333328
        },
        {
            "buffer" : 0,
            "byteLength" : 48,
            "byteOffset" : 333520
        },
        {
            "buffer" : 0,
            "byteLength" : 432,
            "byteOffset" : 333568
        },
        {
            "buffer" : 0,
            "byteLength" : 44,
            "byteOffset" : 334000
        },
        {
            "buffer" : 0,
            "byteLength" : 528,
            "byteOffset" : 334044
        },
        {
            "buffer" : 0,
            "byteLength" : 8,
            "byteOffset" : 334572
        },
        {
            "buffer" : 0,
            "byteLength" : 72,
            "byteOffset" : 334580
        },
        {
            "buffer" : 0,
            "byteLength" : 432,
            "byteOffset" : 334652
        },
        {
            "buffer" : 0,
            "byteLength" : 528,
            "byteOffset" : 335084
        },
        {
            "buffer" : 0,
            "byteLength" : 72,
            "byteOffset" : 335612
        },
        {
            "buffer" : 0,
            "byteLength" : 432,
            "byteOffset" : 335684
        },
        {
            "buffer" : 0,
            "byteLength" : 528,
            "byteOffset" : 336116
        },
        {
            "buffer" : 0,
            "byteLength" : 72,
            "byteOffset" : 336644
        }
    ],
    "buffers" : [
        {
            "byteLength" : 336716,
            "uri" : "data:application/octet-stream;base64,"
        }
    ]
}
