{
    "asset" : {
        "generator" : "Khronos glTF Blender I/O v1.3.48",
        "version" : "2.0"
    },
    "scene" : 0,
    "scenes" : [
        {
            "name" : "Scene",
            "nodes" : [
                0
            ]
        }
    ],
    "nodes" : [
        {
            "mesh" : 0,
            "name" : "Cube",
            "scale" : [
                0.00789358839392662,
                0.049208901822566986,
                -0.17416313290596008
            ],
            "translation" : [
                0.023849135264754295,
                0,
                0
            ]
        }
    ],
    "materials" : [
        {
            "doubleSided" : true,
            "emissiveFactor" : [
                0,
                0,
                0
            ],
            "name" : "Material.001",
            "pbrMetallicRoughness" : {
                "baseColorTexture" : {
                    "index" : 0,
                    "texCoord" : 0
                },
                "metallicFactor" : 0,
                "roughnessFactor" : 0.5
            }
        }
    ],
    "meshes" : [
        {
            "name" : "Cube",
            "primitives" : [
                {
                    "attributes" : {
                        "POSITION" : 0,
                        "NORMAL" : 1,
                        "TEXCOORD_0" : 2
                    },
                    "indices" : 3,
                    "material" : 0
                }
            ]
        }
    ],
    "textures" : [
        {
            "source" : 0
        }
    ],
    "images" : [
        {
            "bufferView" : 4,
            "mimeType" : "image/png",
            "name" : "battleship"
        }
    ],
    "accessors" : [
        {
            "bufferView" : 0,
            "componentType" : 5126,
            "count" : 3846,
            "max" : [
                123.23369598388672,
                39.324100494384766,
                23.864051818847656
            ],
            "min" : [
                -123.23370361328125,
                -3.3807878494262695,
                -24.185985565185547
            ],
            "type" : "VEC3"
        },
        {
            "bufferView" : 1,
            "componentType" : 5126,
            "count" : 3846,
            "type" : "VEC3"
        },
        {
            "bufferView" : 2,
            "componentType" : 5126,
            "count" : 3846,
            "type" : "VEC2"
        },
        {
            "bufferView" : 3,
            "componentType" : 5123,
            "count" : 5850,
            "type" : "SCALAR"
        }
    ],
    "bufferViews" : [
        {
            "buffer" : 0,
            "byteLength" : 46152,
            "byteOffset" : 0
        },
        {
            "buffer" : 0,
            "byteLength" : 46152,
            "byteOffset" : 46152
        },
        {
            "buffer" : 0,
            "byteLength" : 30768,
            "byteOffset" : 92304
        },
        {
            "buffer" : 0,
            "byteLength" : 11700,
            "byteOffset" : 123072
        },
        {
            "buffer" : 0,
            "byteLength" : 104809,
            "byteOffset" : 134772
        }
    ],
    "buffers" : [
        {
            "byteLength" : 239584,
            "uri" : "data:application/octet-stream;base64,"
        }
    ]
}
