{
    "asset" : {
        "generator" : "Khronos glTF Blender I/O v1.3.48",
        "version" : "2.0"
    },
    "scene" : 0,
    "scenes" : [
        {
            "name" : "Scene",
            "nodes" : [
                0
            ]
        }
    ],
    "nodes" : [
        {
            "mesh" : 0,
            "name" : "Plane.018",
            "rotation" : [
                -0.7071070671081543,
                0,
                0,
                -0.7071064710617065
            ],
            "scale" : [
                0.15848873555660248,
                0.1506018042564392,
                0.18897214531898499
            ],
            "translation" : [
                0.358706533908844,
                0.08788573741912842,
                -0.013855122029781342
            ]
        }
    ],
    "materials" : [
        {
            "doubleSided" : true,
            "emissiveFactor" : [
                0,
                0,
                0
            ],
            "name" : "Material",
            "pbrMetallicRoughness" : {
                "baseColorTexture" : {
                    "index" : 0,
                    "texCoord" : 0
                },
                "metallicFactor" : 0,
                "roughnessFactor" : 0.5
            }
        }
    ],
    "meshes" : [
        {
            "extras" : {
                "targetNames" : [
                    "Key 1"
                ]
            },
            "name" : "Plane.016",
            "primitives" : [
                {
                    "attributes" : {
                        "POSITION" : 0,
                        "NORMAL" : 1,
                        "TEXCOORD_0" : 2
                    },
                    "indices" : 3,
                    "material" : 0,
                    "targets" : [
                        {
                            "POSITION" : 4,
                            "NORMAL" : 5
                        }
                    ]
                }
            ],
            "weights" : [
                1
            ]
        }
    ],
    "textures" : [
        {
            "source" : 0
        }
    ],
    "images" : [
        {
            "bufferView" : 4,
            "mimeType" : "image/jpeg",
            "name" : "vampiredecal"
        }
    ],
    "accessors" : [
        {
            "bufferView" : 0,
            "componentType" : 5126,
            "count" : 1106,
            "max" : [
                12.573591232299805,
                16.519622802734375,
                1.9631285667419434
            ],
            "min" : [
                -18.3968448638916,
                -16.48442840576172,
                -3.9113311767578125
            ],
            "type" : "VEC3"
        },
        {
            "bufferView" : 1,
            "componentType" : 5126,
            "count" : 1106,
            "type" : "VEC3"
        },
        {
            "bufferView" : 2,
            "componentType" : 5126,
            "count" : 1106,
            "type" : "VEC2"
        },
        {
            "bufferView" : 3,
            "componentType" : 5123,
            "count" : 3144,
            "type" : "SCALAR"
        },
        {
            "bufferView" : 5,
            "componentType" : 5126,
            "count" : 1106,
            "max" : [
                6.9399003982543945,
                7.194357872009277,
                0.10996752977371216
            ],
            "min" : [
                -0.9077397584915161,
                -7.107654571533203,
                -0.1297152042388916
            ],
            "type" : "VEC3"
        },
        {
            "bufferView" : 6,
            "componentType" : 5126,
            "count" : 1106,
            "type" : "VEC3"
        }
    ],
    "bufferViews" : [
        {
            "buffer" : 0,
            "byteLength" : 13272,
            "byteOffset" : 0
        },
        {
            "buffer" : 0,
            "byteLength" : 13272,
            "byteOffset" : 13272
        },
        {
            "buffer" : 0,
            "byteLength" : 8848,
            "byteOffset" : 26544
        },
        {
            "buffer" : 0,
            "byteLength" : 6288,
            "byteOffset" : 35392
        },
        {
            "buffer" : 0,
            "byteLength" : 97748,
            "byteOffset" : 41680
        },
        {
            "buffer" : 0,
            "byteLength" : 13272,
            "byteOffset" : 139428
        },
        {
            "buffer" : 0,
            "byteLength" : 13272,
            "byteOffset" : 152700
        }
    ],
    "buffers" : [
        {
            "byteLength" : 165972,
            "uri" : "data:application/octet-stream;base64,"
        }
    ]
}
