{
    "asset" : {
        "generator" : "Khronos glTF Blender I/O v1.2.75",
        "version" : "2.0"
    },
    "scene" : 0,
    "scenes" : [
        {
            "name" : "Scene",
            "nodes" : [
                0,
                1,
                2,
                3,
                4,
                5
            ]
        }
    ],
    "nodes" : [
        {
            "name" : "Light",
            "rotation" : [
                0.16907575726509094,
                0.7558803558349609,
                -0.27217137813568115,
                0.570947527885437
            ],
            "translation" : [
                4.076245307922363,
                5.903861999511719,
                -1.0054539442062378
            ]
        },
        {
            "name" : "Camera",
            "rotation" : [
                0.483536034822464,
                0.33687159419059753,
                -0.20870360732078552,
                0.7804827094078064
            ],
            "translation" : [
                7.358891487121582,
                4.958309173583984,
                6.925790786743164
            ]
        },
        {
            "name" : "Plane",
            "rotation" : [
                0,
                0,
                -0.7071067690849304,
                0.7071068286895752
            ],
            "scale" : [
                0.2501060366630554,
                0.2501060366630554,
                0.2501060366630554
            ],
            "translation" : [
                2.3183364868164062,
                1.2273077964782715,
                -7.2150959968566895
            ]
        },
        {
            "mesh" : 0,
            "name" : "Plane.001",
            "translation" : [
                1.6399372816085815,
                1.489720344543457,
                -12.199664115905762
            ]
        },
        {
            "name" : "background1.001",
            "rotation" : [
                -0.5000001192092896,
                -0.5000000596046448,
                0.49999991059303284,
                -0.4999999403953552
            ],
            "scale" : [
                6.151352882385254,
                6.151352882385254,
                6.151352882385254
            ],
            "translation" : [
                2.318366289138794,
                2.752182960510254,
                -0.468766987323761
            ]
        },
        {
            "name" : "background1.000",
            "rotation" : [
                0.0035765105858445168,
                -0.7071369886398315,
                0.01708078198134899,
                0.7068611979484558
            ],
            "scale" : [
                6.151352882385254,
                6.151352882385254,
                6.151352882385254
            ],
            "translation" : [
                3.6553637981414795,
                -2.3306984901428223,
                2.236908197402954
            ]
        }
    ],
    "materials" : [
        {
            "doubleSided" : true,
            "emissiveFactor" : [
                0,
                0,
                0
            ],
            "name" : "Material",
            "pbrMetallicRoughness" : {
                "baseColorTexture" : {
                    "index" : 0,
                    "texCoord" : 0
                },
                "metallicFactor" : 0,
                "roughnessFactor" : 0.5
            }
        }
    ],
    "meshes" : [
        {
            "name" : "Plane.001",
            "primitives" : [
                {
                    "attributes" : {
                        "POSITION" : 0,
                        "NORMAL" : 1,
                        "TEXCOORD_0" : 2
                    },
                    "indices" : 3,
                    "material" : 0
                }
            ]
        }
    ],
    "textures" : [
        {
            "source" : 0
        }
    ],
    "images" : [
        {
            "bufferView" : 4,
            "mimeType" : "image/png",
            "name" : "blueangeltexture"
        }
    ],
    "accessors" : [
        {
            "bufferView" : 0,
            "componentType" : 5126,
            "count" : 11890,
            "max" : [
                4.198578834533691,
                1.9972162246704102,
                5.85364294052124
            ],
            "min" : [
                -4.198578834533691,
                -1.0643963813781738,
                -5.019806385040283
            ],
            "type" : "VEC3"
        },
        {
            "bufferView" : 1,
            "componentType" : 5126,
            "count" : 11890,
            "type" : "VEC3"
        },
        {
            "bufferView" : 2,
            "componentType" : 5126,
            "count" : 11890,
            "type" : "VEC2"
        },
        {
            "bufferView" : 3,
            "componentType" : 5123,
            "count" : 17628,
            "type" : "SCALAR"
        }
    ],
    "bufferViews" : [
        {
            "buffer" : 0,
            "byteLength" : 142680,
            "byteOffset" : 0
        },
        {
            "buffer" : 0,
            "byteLength" : 142680,
            "byteOffset" : 142680
        },
        {
            "buffer" : 0,
            "byteLength" : 95120,
            "byteOffset" : 285360
        },
        {
            "buffer" : 0,
            "byteLength" : 35256,
            "byteOffset" : 380480
        },
        {
            "buffer" : 0,
            "byteLength" : 394694,
            "byteOffset" : 415736
        }
    ],
    "buffers" : [
        {
            "byteLength" : 810432,
            "uri" : "data:application/octet-stream;base64,"
        }
    ]
}
