{
    "asset" : {
        "generator" : "Khronos glTF Blender I/O v1.3.48",
        "version" : "2.0"
    },
    "scene" : 0,
    "scenes" : [
        {
            "name" : "Scene",
            "nodes" : [
                0
            ]
        }
    ],
    "nodes" : [
        {
            "mesh" : 0,
            "name" : "Cylinder.002",
            "translation" : [
                0,
                1.3884224891662598,
                0.030730724334716797
            ]
        }
    ],
    "materials" : [
        {
            "doubleSided" : true,
            "emissiveFactor" : [
                0,
                0,
                0
            ],
            "name" : "Material.001",
            "pbrMetallicRoughness" : {
                "baseColorTexture" : {
                    "index" : 0,
                    "texCoord" : 0
                },
                "metallicFactor" : 0,
                "roughnessFactor" : 0.5
            }
        }
    ],
    "meshes" : [
        {
            "name" : "Cylinder.002",
            "primitives" : [
                {
                    "attributes" : {
                        "POSITION" : 0,
                        "NORMAL" : 1,
                        "TEXCOORD_0" : 2,
                        "COLOR_0" : 3
                    },
                    "indices" : 4,
                    "material" : 0
                }
            ]
        }
    ],
    "textures" : [
        {
            "source" : 0
        }
    ],
    "images" : [
        {
            "bufferView" : 5,
            "mimeType" : "image/png",
            "name" : "barrel"
        }
    ],
    "accessors" : [
        {
            "bufferView" : 0,
            "componentType" : 5126,
            "count" : 1876,
            "max" : [
                0.8576685786247253,
                0.5062834024429321,
                0.8576684594154358
            ],
            "min" : [
                -0.8576685190200806,
                -1.3409918546676636,
                -0.8576685190200806
            ],
            "type" : "VEC3"
        },
        {
            "bufferView" : 1,
            "componentType" : 5126,
            "count" : 1876,
            "type" : "VEC3"
        },
        {
            "bufferView" : 2,
            "componentType" : 5126,
            "count" : 1876,
            "type" : "VEC2"
        },
        {
            "bufferView" : 3,
            "componentType" : 5126,
            "count" : 1876,
            "type" : "VEC4"
        },
        {
            "bufferView" : 4,
            "componentType" : 5123,
            "count" : 3252,
            "type" : "SCALAR"
        }
    ],
    "bufferViews" : [
        {
            "buffer" : 0,
            "byteLength" : 22512,
            "byteOffset" : 0
        },
        {
            "buffer" : 0,
            "byteLength" : 22512,
            "byteOffset" : 22512
        },
        {
            "buffer" : 0,
            "byteLength" : 15008,
            "byteOffset" : 45024
        },
        {
            "buffer" : 0,
            "byteLength" : 30016,
            "byteOffset" : 60032
        },
        {
            "buffer" : 0,
            "byteLength" : 6504,
            "byteOffset" : 90048
        },
        {
            "buffer" : 0,
            "byteLength" : 59773,
            "byteOffset" : 96552
        }
    ],
    "buffers" : [
        {
            "byteLength" : 156328,
            "uri" : "data:application/octet-stream;base64,"
        }
    ]
}
