{
    "asset" : {
        "generator" : "Khronos glTF Blender I/O v1.3.48",
        "version" : "2.0"
    },
    "scene" : 0,
    "scenes" : [
        {
            "name" : "Scene",
            "nodes" : [
                0,
                1,
                2,
                3,
                4
            ]
        }
    ],
    "nodes" : [
        {
            "mesh" : 0,
            "name" : "Cylinder.008",
            "rotation" : [
                0,
                0,
                -1,
                -1.6292068494294654e-07
            ],
            "scale" : [
                7.110419273376465,
                0.11161541938781738,
                7.110419273376465
            ],
            "translation" : [
                0.14078712463378906,
                0.36584901809692383,
                -0.1756572723388672
            ]
        },
        {
            "mesh" : 1,
            "name" : "chasiubao1",
            "rotation" : [
                0,
                -0.3618435263633728,
                0,
                0.9322388768196106
            ],
            "scale" : [
                2.451526641845703,
                2.451526641845703,
                2.451526641845703
            ],
            "translation" : [
                2.547861337661743,
                2.9983856678009033,
                -2.7453293800354004
            ]
        },
        {
            "mesh" : 2,
            "name" : "Plane.007",
            "rotation" : [
                0,
                -0.3618435263633728,
                0,
                0.9322388768196106
            ],
            "scale" : [
                2.4808809757232666,
                2.4808809757232666,
                2.4808809757232666
            ],
            "translation" : [
                2.5084168910980225,
                0.7399376630783081,
                -2.6728873252868652
            ]
        },
        {
            "mesh" : 3,
            "name" : "chasiubao2",
            "rotation" : [
                0,
                -0.5637578368186951,
                0,
                0.8259401321411133
            ],
            "scale" : [
                2.531527519226074,
                2.5315277576446533,
                2.531527519226074
            ],
            "translation" : [
                -2.0422470569610596,
                3.03523588180542,
                1.7935646772384644
            ]
        },
        {
            "mesh" : 4,
            "name" : "Plane.011",
            "rotation" : [
                0,
                -0.5637578368186951,
                0,
                0.8259401321411133
            ],
            "scale" : [
                2.561840295791626,
                2.561840295791626,
                2.561840295791626
            ],
            "translation" : [
                -2.111825704574585,
                0.7030874490737915,
                1.8426958322525024
            ]
        }
    ],
    "meshes" : [
        {
            "name" : "Cylinder.008",
            "primitives" : [
                {
                    "attributes" : {
                        "POSITION" : 0,
                        "NORMAL" : 1,
                        "TEXCOORD_0" : 2,
                        "COLOR_0" : 3
                    },
                    "indices" : 4
                }
            ]
        },
        {
            "name" : "Cylinder.015",
            "primitives" : [
                {
                    "attributes" : {
                        "POSITION" : 5,
                        "NORMAL" : 6,
                        "TEXCOORD_0" : 7
                    },
                    "indices" : 8
                }
            ]
        },
        {
            "name" : "Plane.007",
            "primitives" : [
                {
                    "attributes" : {
                        "POSITION" : 9,
                        "NORMAL" : 10,
                        "TEXCOORD_0" : 11
                    },
                    "indices" : 12
                }
            ]
        },
        {
            "name" : "Cylinder.016",
            "primitives" : [
                {
                    "attributes" : {
                        "POSITION" : 13,
                        "NORMAL" : 14,
                        "TEXCOORD_0" : 15
                    },
                    "indices" : 8
                }
            ]
        },
        {
            "name" : "Plane.011",
            "primitives" : [
                {
                    "attributes" : {
                        "POSITION" : 16,
                        "NORMAL" : 17,
                        "TEXCOORD_0" : 18
                    },
                    "indices" : 12
                }
            ]
        }
    ],
    "accessors" : [
        {
            "bufferView" : 0,
            "componentType" : 5126,
            "count" : 2432,
            "max" : [
                1.0000065565109253,
                1,
                1.0052086114883423
            ],
            "min" : [
                -1.0146708488464355,
                -43.620567321777344,
                -1
            ],
            "type" : "VEC3"
        },
        {
            "bufferView" : 1,
            "componentType" : 5126,
            "count" : 2432,
            "type" : "VEC3"
        },
        {
            "bufferView" : 2,
            "componentType" : 5126,
            "count" : 2432,
            "type" : "VEC2"
        },
        {
            "bufferView" : 3,
            "componentType" : 5126,
            "count" : 2432,
            "type" : "VEC4"
        },
        {
            "bufferView" : 4,
            "componentType" : 5123,
            "count" : 3948,
            "type" : "SCALAR"
        },
        {
            "bufferView" : 5,
            "componentType" : 5126,
            "count" : 844,
            "max" : [
                1.0272715091705322,
                0.007308236788958311,
                1.0051065683364868
            ],
            "min" : [
                -1.0116525888442993,
                -0.8976601958274841,
                -1.0232651233673096
            ],
            "type" : "VEC3"
        },
        {
            "bufferView" : 6,
            "componentType" : 5126,
            "count" : 844,
            "type" : "VEC3"
        },
        {
            "bufferView" : 7,
            "componentType" : 5126,
            "count" : 844,
            "type" : "VEC2"
        },
        {
            "bufferView" : 8,
            "componentType" : 5123,
            "count" : 4218,
            "type" : "SCALAR"
        },
        {
            "bufferView" : 9,
            "componentType" : 5126,
            "count" : 93,
            "max" : [
                1.0530096292495728,
                0.08216638118028641,
                1.053221344947815
            ],
            "min" : [
                -1.0530096292495728,
                0,
                -1.0530096292495728
            ],
            "type" : "VEC3"
        },
        {
            "bufferView" : 10,
            "componentType" : 5126,
            "count" : 93,
            "type" : "VEC3"
        },
        {
            "bufferView" : 11,
            "componentType" : 5126,
            "count" : 93,
            "type" : "VEC2"
        },
        {
            "bufferView" : 12,
            "componentType" : 5123,
            "count" : 384,
            "type" : "SCALAR"
        },
        {
            "bufferView" : 13,
            "componentType" : 5126,
            "count" : 844,
            "max" : [
                1.0272715091705322,
                0.007308236788958311,
                1.0051065683364868
            ],
            "min" : [
                -1.0116525888442993,
                -0.8976601958274841,
                -1.0232651233673096
            ],
            "type" : "VEC3"
        },
        {
            "bufferView" : 14,
            "componentType" : 5126,
            "count" : 844,
            "type" : "VEC3"
        },
        {
            "bufferView" : 15,
            "componentType" : 5126,
            "count" : 844,
            "type" : "VEC2"
        },
        {
            "bufferView" : 16,
            "componentType" : 5126,
            "count" : 93,
            "max" : [
                1.0530096292495728,
                0.08216638118028641,
                1.053221344947815
            ],
            "min" : [
                -1.0530096292495728,
                0,
                -1.0530096292495728
            ],
            "type" : "VEC3"
        },
        {
            "bufferView" : 17,
            "componentType" : 5126,
            "count" : 93,
            "type" : "VEC3"
        },
        {
            "bufferView" : 18,
            "componentType" : 5126,
            "count" : 93,
            "type" : "VEC2"
        }
    ],
    "bufferViews" : [
        {
            "buffer" : 0,
            "byteLength" : 29184,
            "byteOffset" : 0
        },
        {
            "buffer" : 0,
            "byteLength" : 29184,
            "byteOffset" : 29184
        },
        {
            "buffer" : 0,
            "byteLength" : 19456,
            "byteOffset" : 58368
        },
        {
            "buffer" : 0,
            "byteLength" : 38912,
            "byteOffset" : 77824
        },
        {
            "buffer" : 0,
            "byteLength" : 7896,
            "byteOffset" : 116736
        },
        {
            "buffer" : 0,
            "byteLength" : 10128,
            "byteOffset" : 124632
        },
        {
            "buffer" : 0,
            "byteLength" : 10128,
            "byteOffset" : 134760
        },
        {
            "buffer" : 0,
            "byteLength" : 6752,
            "byteOffset" : 144888
        },
        {
            "buffer" : 0,
            "byteLength" : 8436,
            "byteOffset" : 151640
        },
        {
            "buffer" : 0,
            "byteLength" : 1116,
            "byteOffset" : 160076
        },
        {
            "buffer" : 0,
            "byteLength" : 1116,
            "byteOffset" : 161192
        },
        {
            "buffer" : 0,
            "byteLength" : 744,
            "byteOffset" : 162308
        },
        {
            "buffer" : 0,
            "byteLength" : 768,
            "byteOffset" : 163052
        },
        {
            "buffer" : 0,
            "byteLength" : 10128,
            "byteOffset" : 163820
        },
        {
            "buffer" : 0,
            "byteLength" : 10128,
            "byteOffset" : 173948
        },
        {
            "buffer" : 0,
            "byteLength" : 6752,
            "byteOffset" : 184076
        },
        {
            "buffer" : 0,
            "byteLength" : 1116,
            "byteOffset" : 190828
        },
        {
            "buffer" : 0,
            "byteLength" : 1116,
            "byteOffset" : 191944
        },
        {
            "buffer" : 0,
            "byteLength" : 744,
            "byteOffset" : 193060
        }
    ],
    "buffers" : [
        {
            "byteLength" : 193804,
            "uri" : "data:application/octet-stream;base64,"
        }
    ]
}
