{
    "asset" : {
        "generator" : "Khronos glTF Blender I/O v1.3.48",
        "version" : "2.0"
    },
    "scene" : 0,
    "scenes" : [
        {
            "name" : "Scene",
            "nodes" : [
                0,
                1,
                2,
                3
            ]
        }
    ],
    "nodes" : [
        {
            "mesh" : 0,
            "name" : "Cube.007",
            "scale" : [
                0.0028309952467679977,
                0.22838197648525238,
                0.4086974263191223
            ],
            "translation" : [
                0.10713149607181549,
                0.8666558861732483,
                -0.052912238985300064
            ]
        },
        {
            "mesh" : 1,
            "name" : "Cube.017",
            "rotation" : [
                0,
                0,
                0.2432948350906372,
                0.969952404499054
            ],
            "scale" : [
                0.0029981709085404873,
                0.21450428664684296,
                1.9375897645950317
            ],
            "translation" : [
                -0.0013230086769908667,
                1.4130468368530273,
                -0.055404312908649445
            ]
        },
        {
            "mesh" : 2,
            "name" : "Cylinder.001",
            "rotation" : [
                0,
                0,
                -0.7071067690849304,
                0.7071068286895752
            ],
            "scale" : [
                0.6260730624198914,
                0.020420176908373833,
                0.6445411443710327
            ],
            "translation" : [
                0.1321883499622345,
                0.6028791666030884,
                1.21430242061615
            ]
        },
        {
            "mesh" : 3,
            "name" : "Cube.003",
            "scale" : [
                0.03563537448644638,
                0.16877299547195435,
                0.29885053634643555
            ],
            "translation" : [
                0.08930706977844238,
                0.8345305919647217,
                -0.05051213130354881
            ]
        }
    ],
    "materials" : [
        {
            "alphaMode" : "BLEND",
            "doubleSided" : true,
            "emissiveFactor" : [
                0,
                0,
                0
            ],
            "name" : "glass",
            "pbrMetallicRoughness" : {
                "baseColorFactor" : [
                    0.800000011920929,
                    0.800000011920929,
                    0.800000011920929,
                    0.3333333432674408
                ],
                "metallicFactor" : 0,
                "roughnessFactor" : 0.5
            }
        },
        {
            "doubleSided" : true,
            "emissiveFactor" : [
                0,
                0,
                0
            ],
            "name" : "Material",
            "pbrMetallicRoughness" : {
                "baseColorFactor" : [
                    0.800000011920929,
                    0.800000011920929,
                    0.800000011920929,
                    1
                ],
                "metallicFactor" : 0,
                "roughnessFactor" : 0.4000000059604645
            }
        }
    ],
    "meshes" : [
        {
            "name" : "Cube.007",
            "primitives" : [
                {
                    "attributes" : {
                        "POSITION" : 0,
                        "NORMAL" : 1,
                        "TEXCOORD_0" : 2
                    },
                    "indices" : 3,
                    "material" : 0
                }
            ]
        },
        {
            "name" : "Cube.017",
            "primitives" : [
                {
                    "attributes" : {
                        "POSITION" : 4,
                        "NORMAL" : 5,
                        "TEXCOORD_0" : 6
                    },
                    "indices" : 3,
                    "material" : 0
                }
            ]
        },
        {
            "extras" : {
                "targetNames" : [
                    "play",
                    "pause",
                    "stop",
                    "move-speakers",
                    "move-filter"
                ]
            },
            "name" : "Cylinder.001",
            "primitives" : [
                {
                    "attributes" : {
                        "POSITION" : 7,
                        "NORMAL" : 8,
                        "TEXCOORD_0" : 9
                    },
                    "indices" : 10,
                    "material" : 1,
                    "targets" : [
                        {
                            "POSITION" : 11,
                            "NORMAL" : 12
                        },
                        {
                            "POSITION" : 13,
                            "NORMAL" : 14
                        },
                        {
                            "POSITION" : 15,
                            "NORMAL" : 16
                        },
                        {
                            "POSITION" : 17,
                            "NORMAL" : 18
                        },
                        {
                            "POSITION" : 19,
                            "NORMAL" : 20
                        }
                    ]
                }
            ],
            "weights" : [
                0,
                0,
                0,
                0,
                0
            ]
        },
        {
            "name" : "Cube.003",
            "primitives" : [
                {
                    "attributes" : {
                        "POSITION" : 21,
                        "NORMAL" : 22,
                        "TEXCOORD_0" : 23,
                        "COLOR_0" : 24
                    },
                    "indices" : 25
                }
            ]
        }
    ],
    "accessors" : [
        {
            "bufferView" : 0,
            "componentType" : 5126,
            "count" : 24,
            "max" : [
                1,
                1,
                1
            ],
            "min" : [
                -1,
                -1,
                -1
            ],
            "type" : "VEC3"
        },
        {
            "bufferView" : 1,
            "componentType" : 5126,
            "count" : 24,
            "type" : "VEC3"
        },
        {
            "bufferView" : 2,
            "componentType" : 5126,
            "count" : 24,
            "type" : "VEC2"
        },
        {
            "bufferView" : 3,
            "componentType" : 5123,
            "count" : 36,
            "type" : "SCALAR"
        },
        {
            "bufferView" : 4,
            "componentType" : 5126,
            "count" : 24,
            "max" : [
                1,
                1,
                1
            ],
            "min" : [
                -1,
                -1,
                -1
            ],
            "type" : "VEC3"
        },
        {
            "bufferView" : 5,
            "componentType" : 5126,
            "count" : 24,
            "type" : "VEC3"
        },
        {
            "bufferView" : 6,
            "componentType" : 5126,
            "count" : 24,
            "type" : "VEC2"
        },
        {
            "bufferView" : 7,
            "componentType" : 5126,
            "count" : 18363,
            "max" : [
                1.0118250846862793,
                9.304450988769531,
                1.245271921157837
            ],
            "min" : [
                -2.1752755641937256,
                -32.01913833618164,
                -5.154786109924316
            ],
            "type" : "VEC3"
        },
        {
            "bufferView" : 8,
            "componentType" : 5126,
            "count" : 18363,
            "type" : "VEC3"
        },
        {
            "bufferView" : 9,
            "componentType" : 5126,
            "count" : 18363,
            "type" : "VEC2"
        },
        {
            "bufferView" : 10,
            "componentType" : 5123,
            "count" : 27924,
            "type" : "SCALAR"
        },
        {
            "bufferView" : 11,
            "componentType" : 5126,
            "count" : 18363,
            "max" : [
                0.09261751174926758,
                0,
                0
            ],
            "min" : [
                0,
                -1.9073486328125e-06,
                0
            ],
            "type" : "VEC3"
        },
        {
            "bufferView" : 12,
            "componentType" : 5126,
            "count" : 18363,
            "type" : "VEC3"
        },
        {
            "bufferView" : 13,
            "componentType" : 5126,
            "count" : 18363,
            "max" : [
                0.08466219902038574,
                0,
                0
            ],
            "min" : [
                0,
                -1.9073486328125e-06,
                0
            ],
            "type" : "VEC3"
        },
        {
            "bufferView" : 14,
            "componentType" : 5126,
            "count" : 18363,
            "type" : "VEC3"
        },
        {
            "bufferView" : 15,
            "componentType" : 5126,
            "count" : 18363,
            "max" : [
                0.09720706939697266,
                0,
                0
            ],
            "min" : [
                0,
                -1.9073486328125e-06,
                0
            ],
            "type" : "VEC3"
        },
        {
            "bufferView" : 16,
            "componentType" : 5126,
            "count" : 18363,
            "type" : "VEC3"
        },
        {
            "bufferView" : 17,
            "componentType" : 5126,
            "count" : 18363,
            "max" : [
                0.08014881610870361,
                4.033403396606445,
                0.17461156845092773
            ],
            "min" : [
                -0.08015012741088867,
                -5.114080429077148,
                -0.14026755094528198
            ],
            "type" : "VEC3"
        },
        {
            "bufferView" : 18,
            "componentType" : 5126,
            "count" : 18363,
            "type" : "VEC3"
        },
        {
            "bufferView" : 19,
            "componentType" : 5126,
            "count" : 18363,
            "max" : [
                0,
                7.456791877746582,
                0.23624372482299805
            ],
            "min" : [
                0,
                -7.456785202026367,
                -0.23624372482299805
            ],
            "type" : "VEC3"
        },
        {
            "bufferView" : 20,
            "componentType" : 5126,
            "count" : 18363,
            "type" : "VEC3"
        },
        {
            "bufferView" : 21,
            "componentType" : 5126,
            "count" : 582,
            "max" : [
                0.5041936039924622,
                0.9999997615814209,
                0.9999998211860657
            ],
            "min" : [
                -0.438429594039917,
                -0.9999997615814209,
                -0.9999997615814209
            ],
            "type" : "VEC3"
        },
        {
            "bufferView" : 22,
            "componentType" : 5126,
            "count" : 582,
            "type" : "VEC3"
        },
        {
            "bufferView" : 23,
            "componentType" : 5126,
            "count" : 582,
            "type" : "VEC2"
        },
        {
            "bufferView" : 24,
            "componentType" : 5126,
            "count" : 582,
            "type" : "VEC4"
        },
        {
            "bufferView" : 25,
            "componentType" : 5123,
            "count" : 918,
            "type" : "SCALAR"
        }
    ],
    "bufferViews" : [
        {
            "buffer" : 0,
            "byteLength" : 288,
            "byteOffset" : 0
        },
        {
            "buffer" : 0,
            "byteLength" : 288,
            "byteOffset" : 288
        },
        {
            "buffer" : 0,
            "byteLength" : 192,
            "byteOffset" : 576
        },
        {
            "buffer" : 0,
            "byteLength" : 72,
            "byteOffset" : 768
        },
        {
            "buffer" : 0,
            "byteLength" : 288,
            "byteOffset" : 840
        },
        {
            "buffer" : 0,
            "byteLength" : 288,
            "byteOffset" : 1128
        },
        {
            "buffer" : 0,
            "byteLength" : 192,
            "byteOffset" : 1416
        },
        {
            "buffer" : 0,
            "byteLength" : 220356,
            "byteOffset" : 1608
        },
        {
            "buffer" : 0,
            "byteLength" : 220356,
            "byteOffset" : 221964
        },
        {
            "buffer" : 0,
            "byteLength" : 146904,
            "byteOffset" : 442320
        },
        {
            "buffer" : 0,
            "byteLength" : 55848,
            "byteOffset" : 589224
        },
        {
            "buffer" : 0,
            "byteLength" : 220356,
            "byteOffset" : 645072
        },
        {
            "buffer" : 0,
            "byteLength" : 220356,
            "byteOffset" : 865428
        },
        {
            "buffer" : 0,
            "byteLength" : 220356,
            "byteOffset" : 1085784
        },
        {
            "buffer" : 0,
            "byteLength" : 220356,
            "byteOffset" : 1306140
        },
        {
            "buffer" : 0,
            "byteLength" : 220356,
            "byteOffset" : 1526496
        },
        {
            "buffer" : 0,
            "byteLength" : 220356,
            "byteOffset" : 1746852
        },
        {
            "buffer" : 0,
            "byteLength" : 220356,
            "byteOffset" : 1967208
        },
        {
            "buffer" : 0,
            "byteLength" : 220356,
            "byteOffset" : 2187564
        },
        {
            "buffer" : 0,
            "byteLength" : 220356,
            "byteOffset" : 2407920
        },
        {
            "buffer" : 0,
            "byteLength" : 220356,
            "byteOffset" : 2628276
        },
        {
            "buffer" : 0,
            "byteLength" : 6984,
            "byteOffset" : 2848632
        },
        {
            "buffer" : 0,
            "byteLength" : 6984,
            "byteOffset" : 2855616
        },
        {
            "buffer" : 0,
            "byteLength" : 4656,
            "byteOffset" : 2862600
        },
        {
            "buffer" : 0,
            "byteLength" : 9312,
            "byteOffset" : 2867256
        },
        {
            "buffer" : 0,
            "byteLength" : 1836,
            "byteOffset" : 2876568
        }
    ],
    "buffers" : [
        {
            "byteLength" : 2878404,
            "uri" : "data:application/octet-stream;base64,"
        }
    ]
}
