{
    "asset" : {
        "generator" : "Khronos glTF Blender I/O v1.3.48",
        "version" : "2.0"
    },
    "scene" : 0,
    "scenes" : [
        {
            "name" : "Scene",
            "nodes" : [
                0,
                1,
                2,
                3,
                4,
                5,
                6
            ]
        }
    ],
    "nodes" : [
        {
            "mesh" : 0,
            "name" : "Cube.056",
            "scale" : [
                0.9757578372955322,
                0.9757578372955322,
                0.9757578372955322
            ],
            "translation" : [
                0.007283501327037811,
                0.47075775265693665,
                -0.06323003768920898
            ]
        },
        {
            "mesh" : 1,
            "name" : "Cylinder.009",
            "scale" : [
                0.9525940418243408,
                0.1278451532125473,
                0.9525940418243408
            ],
            "translation" : [
                0.042034439742565155,
                0.1549866497516632,
                -0.11001920700073242
            ]
        },
        {
            "mesh" : 2,
            "name" : "Cylinder.010",
            "rotation" : [
                1,
                0,
                0,
                -1.6292068494294654e-07
            ],
            "scale" : [
                1,
                0.1643514633178711,
                1
            ],
            "translation" : [
                0.00856810063123703,
                1.331051230430603,
                -0.07320737838745117
            ]
        },
        {
            "mesh" : 3,
            "name" : "Cube.058",
            "rotation" : [
                0,
                0.16906161606311798,
                0,
                0.9856055974960327
            ],
            "scale" : [
                0.8250755667686462,
                0.006013999227434397,
                0.8250755667686462
            ],
            "translation" : [
                0.03569345921278,
                0.8517699837684631,
                -0.10366296768188477
            ]
        },
        {
            "mesh" : 4,
            "name" : "Plane.003",
            "scale" : [
                0.8127920627593994,
                0.8948513865470886,
                0.8948513865470886
            ],
            "translation" : [
                0.029150299727916718,
                0.6790323257446289,
                -0.05141592025756836
            ]
        },
        {
            "mesh" : 5,
            "name" : "Cylinder.012",
            "scale" : [
                0.5331074595451355,
                0.0074262963607907295,
                0.5331074595451355
            ],
            "translation" : [
                -0.2685627341270447,
                1.0355679988861084,
                -0.025097370147705078
            ]
        },
        {
            "mesh" : 6,
            "name" : "Cylinder.013",
            "scale" : [
                0.41659635305404663,
                0.010173791088163853,
                0.41659635305404663
            ],
            "translation" : [
                0.3313334584236145,
                0.9016473293304443,
                -0.4739508628845215
            ]
        }
    ],
    "materials" : [
        {
            "doubleSided" : true,
            "emissiveFactor" : [
                0,
                0,
                0
            ],
            "name" : "Material",
            "pbrMetallicRoughness" : {
                "baseColorFactor" : [
                    0.800000011920929,
                    0.800000011920929,
                    0.800000011920929,
                    1
                ],
                "metallicFactor" : 0,
                "roughnessFactor" : 0.4000000059604645
            }
        },
        {
            "doubleSided" : true,
            "emissiveFactor" : [
                0,
                0,
                0
            ],
            "name" : "Material.002",
            "pbrMetallicRoughness" : {
                "baseColorTexture" : {
                    "index" : 0,
                    "texCoord" : 0
                },
                "metallicFactor" : 0,
                "roughnessFactor" : 0.5
            }
        },
        {
            "doubleSided" : true,
            "emissiveFactor" : [
                0,
                0,
                0
            ],
            "name" : "Material.001",
            "pbrMetallicRoughness" : {
                "baseColorTexture" : {
                    "index" : 1,
                    "texCoord" : 0
                },
                "metallicFactor" : 0,
                "roughnessFactor" : 0.5
            }
        }
    ],
    "meshes" : [
        {
            "name" : "Cube.056",
            "primitives" : [
                {
                    "attributes" : {
                        "POSITION" : 0,
                        "NORMAL" : 1,
                        "TEXCOORD_0" : 2,
                        "COLOR_0" : 3
                    },
                    "indices" : 4,
                    "material" : 0
                }
            ]
        },
        {
            "name" : "Cylinder.009",
            "primitives" : [
                {
                    "attributes" : {
                        "POSITION" : 5,
                        "NORMAL" : 6,
                        "TEXCOORD_0" : 7,
                        "COLOR_0" : 8
                    },
                    "indices" : 9
                }
            ]
        },
        {
            "name" : "Cylinder.010",
            "primitives" : [
                {
                    "attributes" : {
                        "POSITION" : 10,
                        "NORMAL" : 11,
                        "TEXCOORD_0" : 12,
                        "COLOR_0" : 13
                    },
                    "indices" : 14
                }
            ]
        },
        {
            "name" : "Cube.058",
            "primitives" : [
                {
                    "attributes" : {
                        "POSITION" : 15,
                        "NORMAL" : 16,
                        "TEXCOORD_0" : 17,
                        "COLOR_0" : 18
                    },
                    "indices" : 19
                }
            ]
        },
        {
            "name" : "Plane.005",
            "primitives" : [
                {
                    "attributes" : {
                        "POSITION" : 20,
                        "NORMAL" : 21,
                        "TEXCOORD_0" : 22,
                        "COLOR_0" : 23
                    },
                    "indices" : 24
                }
            ]
        },
        {
            "name" : "Cylinder.012",
            "primitives" : [
                {
                    "attributes" : {
                        "POSITION" : 25,
                        "NORMAL" : 26,
                        "TEXCOORD_0" : 27,
                        "COLOR_0" : 28
                    },
                    "indices" : 29,
                    "material" : 1
                }
            ]
        },
        {
            "name" : "Cylinder.013",
            "primitives" : [
                {
                    "attributes" : {
                        "POSITION" : 30,
                        "NORMAL" : 31,
                        "TEXCOORD_0" : 32,
                        "COLOR_0" : 33
                    },
                    "indices" : 34,
                    "material" : 2
                }
            ]
        }
    ],
    "textures" : [
        {
            "source" : 0
        },
        {
            "source" : 1
        }
    ],
    "images" : [
        {
            "bufferView" : 30,
            "mimeType" : "image/png",
            "name" : "onion"
        },
        {
            "bufferView" : 36,
            "mimeType" : "image/png",
            "name" : "tomato"
        }
    ],
    "accessors" : [
        {
            "bufferView" : 0,
            "componentType" : 5126,
            "count" : 165,
            "max" : [
                1.0340572595596313,
                0.11719883978366852,
                1.0306429862976074
            ],
            "min" : [
                -1.0269097089767456,
                -0.1328810453414917,
                -1.0444297790527344
            ],
            "type" : "VEC3"
        },
        {
            "bufferView" : 1,
            "componentType" : 5126,
            "count" : 165,
            "type" : "VEC3"
        },
        {
            "bufferView" : 2,
            "componentType" : 5126,
            "count" : 165,
            "type" : "VEC2"
        },
        {
            "bufferView" : 3,
            "componentType" : 5126,
            "count" : 165,
            "type" : "VEC4"
        },
        {
            "bufferView" : 4,
            "componentType" : 5123,
            "count" : 780,
            "type" : "SCALAR"
        },
        {
            "bufferView" : 5,
            "componentType" : 5126,
            "count" : 130,
            "max" : [
                1.0011097192764282,
                1.0345126390457153,
                1.1414287090301514
            ],
            "min" : [
                -1.001156210899353,
                -1.150020718574524,
                -1.0772955417633057
            ],
            "type" : "VEC3"
        },
        {
            "bufferView" : 6,
            "componentType" : 5126,
            "count" : 130,
            "type" : "VEC3"
        },
        {
            "bufferView" : 7,
            "componentType" : 5126,
            "count" : 130,
            "type" : "VEC2"
        },
        {
            "bufferView" : 8,
            "componentType" : 5126,
            "count" : 130,
            "type" : "VEC4"
        },
        {
            "bufferView" : 9,
            "componentType" : 5123,
            "count" : 372,
            "type" : "SCALAR"
        },
        {
            "bufferView" : 10,
            "componentType" : 5126,
            "count" : 195,
            "max" : [
                0.9786933064460754,
                1.3255733251571655,
                1.0426721572875977
            ],
            "min" : [
                -0.9620669484138489,
                -2.1726036071777344,
                -1.0146325826644897
            ],
            "type" : "VEC3"
        },
        {
            "bufferView" : 11,
            "componentType" : 5126,
            "count" : 195,
            "type" : "VEC3"
        },
        {
            "bufferView" : 12,
            "componentType" : 5126,
            "count" : 195,
            "type" : "VEC2"
        },
        {
            "bufferView" : 13,
            "componentType" : 5126,
            "count" : 195,
            "type" : "VEC4"
        },
        {
            "bufferView" : 14,
            "componentType" : 5123,
            "count" : 756,
            "type" : "SCALAR"
        },
        {
            "bufferView" : 15,
            "componentType" : 5126,
            "count" : 68,
            "max" : [
                1.036130428314209,
                5.955146789550781,
                1.007755160331726
            ],
            "min" : [
                -1.0585973262786865,
                -3.9778366088867188,
                -0.9697307348251343
            ],
            "type" : "VEC3"
        },
        {
            "bufferView" : 16,
            "componentType" : 5126,
            "count" : 68,
            "type" : "VEC3"
        },
        {
            "bufferView" : 17,
            "componentType" : 5126,
            "count" : 68,
            "type" : "VEC2"
        },
        {
            "bufferView" : 18,
            "componentType" : 5126,
            "count" : 68,
            "type" : "VEC4"
        },
        {
            "bufferView" : 19,
            "componentType" : 5123,
            "count" : 252,
            "type" : "SCALAR"
        },
        {
            "bufferView" : 20,
            "componentType" : 5126,
            "count" : 338,
            "max" : [
                1.2745307683944702,
                0.03571559488773346,
                1.375474452972412
            ],
            "min" : [
                -1.0322771072387695,
                -0.20155291259288788,
                -1.3636329174041748
            ],
            "type" : "VEC3"
        },
        {
            "bufferView" : 21,
            "componentType" : 5126,
            "count" : 338,
            "type" : "VEC3"
        },
        {
            "bufferView" : 22,
            "componentType" : 5126,
            "count" : 338,
            "type" : "VEC2"
        },
        {
            "bufferView" : 23,
            "componentType" : 5126,
            "count" : 338,
            "type" : "VEC4"
        },
        {
            "bufferView" : 24,
            "componentType" : 5123,
            "count" : 2016,
            "type" : "SCALAR"
        },
        {
            "bufferView" : 25,
            "componentType" : 5126,
            "count" : 323,
            "max" : [
                1,
                3.9757704734802246,
                1
            ],
            "min" : [
                -1,
                -2.8065247535705566,
                -1
            ],
            "type" : "VEC3"
        },
        {
            "bufferView" : 26,
            "componentType" : 5126,
            "count" : 323,
            "type" : "VEC3"
        },
        {
            "bufferView" : 27,
            "componentType" : 5126,
            "count" : 323,
            "type" : "VEC2"
        },
        {
            "bufferView" : 28,
            "componentType" : 5126,
            "count" : 323,
            "type" : "VEC4"
        },
        {
            "bufferView" : 29,
            "componentType" : 5123,
            "count" : 1140,
            "type" : "SCALAR"
        },
        {
            "bufferView" : 31,
            "componentType" : 5126,
            "count" : 192,
            "max" : [
                1,
                3.9757704734802246,
                1
            ],
            "min" : [
                -1,
                -2.8065247535705566,
                -1
            ],
            "type" : "VEC3"
        },
        {
            "bufferView" : 32,
            "componentType" : 5126,
            "count" : 192,
            "type" : "VEC3"
        },
        {
            "bufferView" : 33,
            "componentType" : 5126,
            "count" : 192,
            "type" : "VEC2"
        },
        {
            "bufferView" : 34,
            "componentType" : 5126,
            "count" : 192,
            "type" : "VEC4"
        },
        {
            "bufferView" : 35,
            "componentType" : 5123,
            "count" : 372,
            "type" : "SCALAR"
        }
    ],
    "bufferViews" : [
        {
            "buffer" : 0,
            "byteLength" : 1980,
            "byteOffset" : 0
        },
        {
            "buffer" : 0,
            "byteLength" : 1980,
            "byteOffset" : 1980
        },
        {
            "buffer" : 0,
            "byteLength" : 1320,
            "byteOffset" : 3960
        },
        {
            "buffer" : 0,
            "byteLength" : 2640,
            "byteOffset" : 5280
        },
        {
            "buffer" : 0,
            "byteLength" : 1560,
            "byteOffset" : 7920
        },
        {
            "buffer" : 0,
            "byteLength" : 1560,
            "byteOffset" : 9480
        },
        {
            "buffer" : 0,
            "byteLength" : 1560,
            "byteOffset" : 11040
        },
        {
            "buffer" : 0,
            "byteLength" : 1040,
            "byteOffset" : 12600
        },
        {
            "buffer" : 0,
            "byteLength" : 2080,
            "byteOffset" : 13640
        },
        {
            "buffer" : 0,
            "byteLength" : 744,
            "byteOffset" : 15720
        },
        {
            "buffer" : 0,
            "byteLength" : 2340,
            "byteOffset" : 16464
        },
        {
            "buffer" : 0,
            "byteLength" : 2340,
            "byteOffset" : 18804
        },
        {
            "buffer" : 0,
            "byteLength" : 1560,
            "byteOffset" : 21144
        },
        {
            "buffer" : 0,
            "byteLength" : 3120,
            "byteOffset" : 22704
        },
        {
            "buffer" : 0,
            "byteLength" : 1512,
            "byteOffset" : 25824
        },
        {
            "buffer" : 0,
            "byteLength" : 816,
            "byteOffset" : 27336
        },
        {
            "buffer" : 0,
            "byteLength" : 816,
            "byteOffset" : 28152
        },
        {
            "buffer" : 0,
            "byteLength" : 544,
            "byteOffset" : 28968
        },
        {
            "buffer" : 0,
            "byteLength" : 1088,
            "byteOffset" : 29512
        },
        {
            "buffer" : 0,
            "byteLength" : 504,
            "byteOffset" : 30600
        },
        {
            "buffer" : 0,
            "byteLength" : 4056,
            "byteOffset" : 31104
        },
        {
            "buffer" : 0,
            "byteLength" : 4056,
            "byteOffset" : 35160
        },
        {
            "buffer" : 0,
            "byteLength" : 2704,
            "byteOffset" : 39216
        },
        {
            "buffer" : 0,
            "byteLength" : 5408,
            "byteOffset" : 41920
        },
        {
            "buffer" : 0,
            "byteLength" : 4032,
            "byteOffset" : 47328
        },
        {
            "buffer" : 0,
            "byteLength" : 3876,
            "byteOffset" : 51360
        },
        {
            "buffer" : 0,
            "byteLength" : 3876,
            "byteOffset" : 55236
        },
        {
            "buffer" : 0,
            "byteLength" : 2584,
            "byteOffset" : 59112
        },
        {
            "buffer" : 0,
            "byteLength" : 5168,
            "byteOffset" : 61696
        },
        {
            "buffer" : 0,
            "byteLength" : 2280,
            "byteOffset" : 66864
        },
        {
            "buffer" : 0,
            "byteLength" : 399386,
            "byteOffset" : 69144
        },
        {
            "buffer" : 0,
            "byteLength" : 2304,
            "byteOffset" : 468532
        },
        {
            "buffer" : 0,
            "byteLength" : 2304,
            "byteOffset" : 470836
        },
        {
            "buffer" : 0,
            "byteLength" : 1536,
            "byteOffset" : 473140
        },
        {
            "buffer" : 0,
            "byteLength" : 3072,
            "byteOffset" : 474676
        },
        {
            "buffer" : 0,
            "byteLength" : 744,
            "byteOffset" : 477748
        },
        {
            "buffer" : 0,
            "byteLength" : 99515,
            "byteOffset" : 478492
        }
    ],
    "buffers" : [
        {
            "byteLength" : 578008,
            "uri" : "data:application/octet-stream;base64,"
        }
    ]
}
