{
    "asset" : {
        "generator" : "Khronos glTF Blender I/O v1.3.48",
        "version" : "2.0"
    },
    "scene" : 0,
    "scenes" : [
        {
            "name" : "Scene",
            "nodes" : [
                0
            ]
        }
    ],
    "nodes" : [
        {
            "mesh" : 0,
            "name" : "Cylinder.010",
            "scale" : [
                0.34343045949935913,
                0.1548559069633484,
                0.3823421895503998
            ],
            "translation" : [
                0.020077690482139587,
                0.15872856974601746,
                -0.025415167212486267
            ]
        }
    ],
    "meshes" : [
        {
            "name" : "Cylinder.012",
            "primitives" : [
                {
                    "attributes" : {
                        "POSITION" : 0,
                        "NORMAL" : 1,
                        "TEXCOORD_0" : 2,
                        "COLOR_0" : 3
                    },
                    "indices" : 4
                }
            ]
        }
    ],
    "accessors" : [
        {
            "bufferView" : 0,
            "componentType" : 5126,
            "count" : 34042,
            "max" : [
                1,
                -0.16072267293930054,
                1
            ],
            "min" : [
                -1,
                -1,
                -1
            ],
            "type" : "VEC3"
        },
        {
            "bufferView" : 1,
            "componentType" : 5126,
            "count" : 34042,
            "type" : "VEC3"
        },
        {
            "bufferView" : 2,
            "componentType" : 5126,
            "count" : 34042,
            "type" : "VEC2"
        },
        {
            "bufferView" : 3,
            "componentType" : 5126,
            "count" : 34042,
            "type" : "VEC4"
        },
        {
            "bufferView" : 4,
            "componentType" : 5123,
            "count" : 65856,
            "type" : "SCALAR"
        }
    ],
    "bufferViews" : [
        {
            "buffer" : 0,
            "byteLength" : 408504,
            "byteOffset" : 0
        },
        {
            "buffer" : 0,
            "byteLength" : 408504,
            "byteOffset" : 408504
        },
        {
            "buffer" : 0,
            "byteLength" : 272336,
            "byteOffset" : 817008
        },
        {
            "buffer" : 0,
            "byteLength" : 544672,
            "byteOffset" : 1089344
        },
        {
            "buffer" : 0,
            "byteLength" : 131712,
            "byteOffset" : 1634016
        }
    ],
    "buffers" : [
        {
            "byteLength" : 1765728,
            "uri" : "data:application/octet-stream;base64,"
        }
    ]
}
