{
    "asset" : {
        "generator" : "Khronos glTF Blender I/O v1.3.48",
        "version" : "2.0"
    },
    "scene" : 0,
    "scenes" : [
        {
            "name" : "Scene",
            "nodes" : [
                0
            ]
        }
    ],
    "nodes" : [
        {
            "mesh" : 0,
            "name" : "Cylinder.010",
            "scale" : [
                0.34343045949935913,
                0.1548559069633484,
                0.3823421895503998
            ],
            "translation" : [
                0.009370114654302597,
                0.11054230481386185,
                -0.07100993394851685
            ]
        }
    ],
    "meshes" : [
        {
            "name" : "Cylinder.012",
            "primitives" : [
                {
                    "attributes" : {
                        "POSITION" : 0,
                        "NORMAL" : 1,
                        "TEXCOORD_0" : 2
                    },
                    "indices" : 3
                }
            ]
        }
    ],
    "accessors" : [
        {
            "bufferView" : 0,
            "componentType" : 5126,
            "count" : 22944,
            "max" : [
                1,
                -0.16072267293930054,
                1
            ],
            "min" : [
                -1,
                -1,
                -1
            ],
            "type" : "VEC3"
        },
        {
            "bufferView" : 1,
            "componentType" : 5126,
            "count" : 22944,
            "type" : "VEC3"
        },
        {
            "bufferView" : 2,
            "componentType" : 5126,
            "count" : 22944,
            "type" : "VEC2"
        },
        {
            "bufferView" : 3,
            "componentType" : 5123,
            "count" : 65856,
            "type" : "SCALAR"
        }
    ],
    "bufferViews" : [
        {
            "buffer" : 0,
            "byteLength" : 275328,
            "byteOffset" : 0
        },
        {
            "buffer" : 0,
            "byteLength" : 275328,
            "byteOffset" : 275328
        },
        {
            "buffer" : 0,
            "byteLength" : 183552,
            "byteOffset" : 550656
        },
        {
            "buffer" : 0,
            "byteLength" : 131712,
            "byteOffset" : 734208
        }
    ],
    "buffers" : [
        {
            "byteLength" : 865920,
            "uri" : "data:application/octet-stream;base64,"
        }
    ]
}
