{
    "asset" : {
        "generator" : "Khronos glTF Blender I/O v1.3.48",
        "version" : "2.0"
    },
    "scene" : 0,
    "scenes" : [
        {
            "name" : "Scene",
            "nodes" : [
                0,
                1,
                2,
                3,
                4
            ]
        }
    ],
    "nodes" : [
        {
            "mesh" : 0,
            "name" : "chasiubao2.001",
            "rotation" : [
                0,
                -0.5637578368186951,
                0,
                0.8259401321411133
            ],
            "scale" : [
                2.531527519226074,
                2.5315277576446533,
                2.531527519226074
            ],
            "translation" : [
                -1.9515457153320312,
                3.03523588180542,
                1.6040191650390625
            ]
        },
        {
            "mesh" : 1,
            "name" : "Cylinder.010",
            "rotation" : [
                0,
                0,
                -1,
                -1.6292068494294654e-07
            ],
            "scale" : [
                7.110419273376465,
                0.11161541938781738,
                7.110419273376465
            ],
            "translation" : [
                0.23148727416992188,
                0.36584901809692383,
                -0.3652000427246094
            ]
        },
        {
            "mesh" : 2,
            "name" : "Plane.013",
            "rotation" : [
                0,
                -0.3618435263633728,
                0,
                0.9322388768196106
            ],
            "scale" : [
                2.4808809757232666,
                2.4808809757232666,
                2.4808809757232666
            ],
            "translation" : [
                2.5991172790527344,
                0.7399376630783081,
                -2.8624305725097656
            ]
        },
        {
            "mesh" : 3,
            "name" : "Plane.014",
            "rotation" : [
                0,
                -0.5637578368186951,
                0,
                0.8259401321411133
            ],
            "scale" : [
                2.561840295791626,
                2.561840295791626,
                2.561840295791626
            ],
            "translation" : [
                -2.0211219787597656,
                0.7030874490737915,
                1.6531524658203125
            ]
        },
        {
            "mesh" : 4,
            "name" : "chasiubao1",
            "scale" : [
                2.625786542892456,
                2.625786542892456,
                2.625786542892456
            ],
            "translation" : [
                2.689525604248047,
                2.997130870819092,
                -3.0775070190429688
            ]
        }
    ],
    "meshes" : [
        {
            "name" : "Cylinder.028",
            "primitives" : [
                {
                    "attributes" : {
                        "POSITION" : 0,
                        "NORMAL" : 1,
                        "TEXCOORD_0" : 2
                    },
                    "indices" : 3
                }
            ]
        },
        {
            "name" : "Cylinder.031",
            "primitives" : [
                {
                    "attributes" : {
                        "POSITION" : 4,
                        "NORMAL" : 5,
                        "TEXCOORD_0" : 6,
                        "COLOR_0" : 7
                    },
                    "indices" : 8
                }
            ]
        },
        {
            "name" : "Plane.013",
            "primitives" : [
                {
                    "attributes" : {
                        "POSITION" : 9,
                        "NORMAL" : 10,
                        "TEXCOORD_0" : 11
                    },
                    "indices" : 12
                }
            ]
        },
        {
            "name" : "Plane.014",
            "primitives" : [
                {
                    "attributes" : {
                        "POSITION" : 13,
                        "NORMAL" : 14,
                        "TEXCOORD_0" : 15
                    },
                    "indices" : 12
                }
            ]
        },
        {
            "name" : "Cylinder.032",
            "primitives" : [
                {
                    "attributes" : {
                        "POSITION" : 16,
                        "NORMAL" : 17,
                        "TEXCOORD_0" : 18,
                        "COLOR_0" : 19
                    },
                    "indices" : 20
                }
            ]
        }
    ],
    "accessors" : [
        {
            "bufferView" : 0,
            "componentType" : 5126,
            "count" : 844,
            "max" : [
                1.0272715091705322,
                0.007308236788958311,
                1.0051065683364868
            ],
            "min" : [
                -1.0116525888442993,
                -0.8976601958274841,
                -1.0232651233673096
            ],
            "type" : "VEC3"
        },
        {
            "bufferView" : 1,
            "componentType" : 5126,
            "count" : 844,
            "type" : "VEC3"
        },
        {
            "bufferView" : 2,
            "componentType" : 5126,
            "count" : 844,
            "type" : "VEC2"
        },
        {
            "bufferView" : 3,
            "componentType" : 5123,
            "count" : 4218,
            "type" : "SCALAR"
        },
        {
            "bufferView" : 4,
            "componentType" : 5126,
            "count" : 2432,
            "max" : [
                1.0000065565109253,
                1,
                1.0052086114883423
            ],
            "min" : [
                -1.0146708488464355,
                -43.620567321777344,
                -1
            ],
            "type" : "VEC3"
        },
        {
            "bufferView" : 5,
            "componentType" : 5126,
            "count" : 2432,
            "type" : "VEC3"
        },
        {
            "bufferView" : 6,
            "componentType" : 5126,
            "count" : 2432,
            "type" : "VEC2"
        },
        {
            "bufferView" : 7,
            "componentType" : 5126,
            "count" : 2432,
            "type" : "VEC4"
        },
        {
            "bufferView" : 8,
            "componentType" : 5123,
            "count" : 3948,
            "type" : "SCALAR"
        },
        {
            "bufferView" : 9,
            "componentType" : 5126,
            "count" : 93,
            "max" : [
                1.0530096292495728,
                0.08216638118028641,
                1.053221344947815
            ],
            "min" : [
                -1.0530096292495728,
                0,
                -1.0530096292495728
            ],
            "type" : "VEC3"
        },
        {
            "bufferView" : 10,
            "componentType" : 5126,
            "count" : 93,
            "type" : "VEC3"
        },
        {
            "bufferView" : 11,
            "componentType" : 5126,
            "count" : 93,
            "type" : "VEC2"
        },
        {
            "bufferView" : 12,
            "componentType" : 5123,
            "count" : 384,
            "type" : "SCALAR"
        },
        {
            "bufferView" : 13,
            "componentType" : 5126,
            "count" : 93,
            "max" : [
                1.0530096292495728,
                0.08216638118028641,
                1.053221344947815
            ],
            "min" : [
                -1.0530096292495728,
                0,
                -1.0530096292495728
            ],
            "type" : "VEC3"
        },
        {
            "bufferView" : 14,
            "componentType" : 5126,
            "count" : 93,
            "type" : "VEC3"
        },
        {
            "bufferView" : 15,
            "componentType" : 5126,
            "count" : 93,
            "type" : "VEC2"
        },
        {
            "bufferView" : 16,
            "componentType" : 5126,
            "count" : 269,
            "max" : [
                1.0008190870285034,
                0.14553552865982056,
                0.9883154630661011
            ],
            "min" : [
                -1.0048019886016846,
                -0.8025899529457092,
                -1.0054032802581787
            ],
            "type" : "VEC3"
        },
        {
            "bufferView" : 17,
            "componentType" : 5126,
            "count" : 269,
            "type" : "VEC3"
        },
        {
            "bufferView" : 18,
            "componentType" : 5126,
            "count" : 269,
            "type" : "VEC2"
        },
        {
            "bufferView" : 19,
            "componentType" : 5126,
            "count" : 269,
            "type" : "VEC4"
        },
        {
            "bufferView" : 20,
            "componentType" : 5123,
            "count" : 1332,
            "type" : "SCALAR"
        }
    ],
    "bufferViews" : [
        {
            "buffer" : 0,
            "byteLength" : 10128,
            "byteOffset" : 0
        },
        {
            "buffer" : 0,
            "byteLength" : 10128,
            "byteOffset" : 10128
        },
        {
            "buffer" : 0,
            "byteLength" : 6752,
            "byteOffset" : 20256
        },
        {
            "buffer" : 0,
            "byteLength" : 8436,
            "byteOffset" : 27008
        },
        {
            "buffer" : 0,
            "byteLength" : 29184,
            "byteOffset" : 35444
        },
        {
            "buffer" : 0,
            "byteLength" : 29184,
            "byteOffset" : 64628
        },
        {
            "buffer" : 0,
            "byteLength" : 19456,
            "byteOffset" : 93812
        },
        {
            "buffer" : 0,
            "byteLength" : 38912,
            "byteOffset" : 113268
        },
        {
            "buffer" : 0,
            "byteLength" : 7896,
            "byteOffset" : 152180
        },
        {
            "buffer" : 0,
            "byteLength" : 1116,
            "byteOffset" : 160076
        },
        {
            "buffer" : 0,
            "byteLength" : 1116,
            "byteOffset" : 161192
        },
        {
            "buffer" : 0,
            "byteLength" : 744,
            "byteOffset" : 162308
        },
        {
            "buffer" : 0,
            "byteLength" : 768,
            "byteOffset" : 163052
        },
        {
            "buffer" : 0,
            "byteLength" : 1116,
            "byteOffset" : 163820
        },
        {
            "buffer" : 0,
            "byteLength" : 1116,
            "byteOffset" : 164936
        },
        {
            "buffer" : 0,
            "byteLength" : 744,
            "byteOffset" : 166052
        },
        {
            "buffer" : 0,
            "byteLength" : 3228,
            "byteOffset" : 166796
        },
        {
            "buffer" : 0,
            "byteLength" : 3228,
            "byteOffset" : 170024
        },
        {
            "buffer" : 0,
            "byteLength" : 2152,
            "byteOffset" : 173252
        },
        {
            "buffer" : 0,
            "byteLength" : 4304,
            "byteOffset" : 175404
        },
        {
            "buffer" : 0,
            "byteLength" : 2664,
            "byteOffset" : 179708
        }
    ],
    "buffers" : [
        {
            "byteLength" : 182372,
            "uri" : "data:application/octet-stream;base64,"
        }
    ]
}
