{
  "asset": {
    "version": "2.0",
    "generator": "THREE.GLTFExporter"
  },
  "scenes": [
    {
      "nodes": [
        0,
        1,
        2,
        3
      ]
    }
  ],
  "scene": 0,
  "nodes": [
    {
      "matrix": [
        0.9625586363118462,
        0.22185243240418873,
        -0.15576382730860128,
        0,
        -0.2687280089959649,
        0.8563899885135732,
        -0.44088711112345597,
        0,
        0.035582704261248696,
        0.4662377996366949,
        0.8839435419456322,
        0,
        -0.10975486751963157,
        2.0111671379406073,
        3.551546437049035,
        1
      ],
      "camera": 0
    },
    {
      "matrix": [
        1,
        0,
        0,
        0,
        0,
        1,
        0,
        0,
        0,
        0,
        1,
        0,
        0,
        200,
        0,
        1
      ]
    },
    {
      "matrix": [
        1,
        0,
        0,
        0,
        0,
        1,
        0,
        0,
        0,
        0,
        1,
        0,
        0,
        100,
        -10,
        1
      ],
      "extensions": {
        "KHR_lights_punctual": {
          "light": 0
        }
      }
    },
    {
      "matrix": [
        0.2465812712907791,
        0,
        0,
        0,
        0,
        0.44996634125709534,
        0,
        0,
        0,
        0,
        0.2615124583244324,
        0,
        -0.29399630427360535,
        -0.2810118496417999,
        -0.7799990177154541,
        1
      ],
      "name": "Cylinder002",
      "mesh": 0
    }
  ],
  "cameras": [
    {
      "type": "perspective",
      "perspective": {
        "aspectRatio": 0.9444444444444444,
        "yfov": 1.0471975511965976,
        "zfar": 1000,
        "znear": 0.01
      }
    }
  ],
  "extensions": {
    "KHR_lights_punctual": {
      "lights": [
        {
          "color": [
            1,
            1,
            1
          ],
          "intensity": 1,
          "type": "directional"
        }
      ]
    }
  },
  "bufferViews": [
    {
      "buffer": 0,
      "byteOffset": 0,
      "byteLength": 24156,
      "target": 34962,
      "byteStride": 12
    },
    {
      "buffer": 0,
      "byteOffset": 24156,
      "byteLength": 24156,
      "target": 34962,
      "byteStride": 12
    },
    {
      "buffer": 0,
      "byteOffset": 48312,
      "byteLength": 16104,
      "target": 34962,
      "byteStride": 8
    },
    {
      "buffer": 0,
      "byteOffset": 64416,
      "byteLength": 16776,
      "target": 34963
    }
  ],
  "buffers": [
    {
      "byteLength": 81192,
      "uri": "data:application/octet-stream;base64,"
    }
  ],
  "accessors": [
    {
      "bufferView": 0,
      "componentType": 5126,
      "count": 2013,
      "max": [
        3.856649160385132,
        3.3096699714660645,
        8.044347763061523
      ],
      "min": [
        -1.5499019622802734,
        -0.8943578600883484,
        -1.663963794708252
      ],
      "type": "VEC3"
    },
    {
      "bufferView": 1,
      "componentType": 5126,
      "count": 2013,
      "max": [
        0.999969482421875,
        0.999969482421875,
        0.999969482421875
      ],
      "min": [
        -0.999969482421875,
        -0.999603271484375,
        -0.999969482421875
      ],
      "type": "VEC3"
    },
    {
      "bufferView": 2,
      "componentType": 5126,
      "count": 2013,
      "max": [
        0.991098940372467,
        0.966982364654541
      ],
      "min": [
        0.018264055252075195,
        0.016296803951263428
      ],
      "type": "VEC2"
    },
    {
      "bufferView": 3,
      "componentType": 5123,
      "count": 8388,
      "max": [
        2012
      ],
      "min": [
        0
      ],
      "type": "SCALAR"
    }
  ],
  "materials": [
    {
      "pbrMetallicRoughness": {
        "metallicFactor": 0,
        "roughnessFactor": 0.4000000059604645,
        "baseColorTexture": {
          "index": 0
        }
      },
      "doubleSided": true,
      "name": "Material"
    }
  ],
  "textures": [
    {
      "sampler": 0,
      "source": 0
    }
  ],
  "samplers": [
    {
      "magFilter": 9729,
      "minFilter": 9987,
      "wrapS": 33071,
      "wrapT": 33071
    }
  ],
  "images": [
    {
      "mimeType": "image/png",
      "uri": "data:image/png;base64,"
    }
  ],
  "meshes": [
    {
      "primitives": [
        {
          "mode": 4,
          "attributes": {
            "POSITION": 0,
            "NORMAL": 1,
            "TEXCOORD_0": 2
          },
          "indices": 3,
          "material": 0
        }
      ]
    }
  ],
  "extensionsUsed": [
    "KHR_lights_punctual"
  ]
}