{
    "asset" : {
        "generator" : "Khronos glTF Blender I/O v1.3.48",
        "version" : "2.0"
    },
    "scene" : 0,
    "scenes" : [
        {
            "name" : "Scene",
            "nodes" : [
                0,
                1,
                2,
                3
            ]
        }
    ],
    "nodes" : [
        {
            "mesh" : 0,
            "name" : "Plane.010",
            "scale" : [
                6.8511061668396,
                5.436316967010498,
                6.199437141418457
            ],
            "translation" : [
                0.00176239013671875,
                0.1146085262298584,
                -0.76300048828125
            ]
        },
        {
            "mesh" : 1,
            "name" : "dantat1",
            "scale" : [
                3.0043256282806396,
                2.907396078109741,
                2.9270668029785156
            ],
            "translation" : [
                -6.203424453735352,
                3.5520732402801514,
                -0.4455867409706116
            ]
        },
        {
            "mesh" : 2,
            "name" : "dantat2",
            "scale" : [
                3.0043256282806396,
                2.907396078109741,
                2.9270668029785156
            ],
            "translation" : [
                0.3121623992919922,
                3.5453832149505615,
                -0.40122756361961365
            ]
        },
        {
            "mesh" : 3,
            "name" : "dantat3",
            "scale" : [
                3.0043256282806396,
                2.907396078109741,
                2.9270668029785156
            ],
            "translation" : [
                6.651617050170898,
                3.530766010284424,
                -0.7828037142753601
            ]
        }
    ],
    "meshes" : [
        {
            "name" : "Plane.010",
            "primitives" : [
                {
                    "attributes" : {
                        "POSITION" : 0,
                        "NORMAL" : 1,
                        "TEXCOORD_0" : 2,
                        "COLOR_0" : 3
                    },
                    "indices" : 4
                }
            ]
        },
        {
            "name" : "Cylinder.023",
            "primitives" : [
                {
                    "attributes" : {
                        "POSITION" : 5,
                        "NORMAL" : 6,
                        "TEXCOORD_0" : 7,
                        "COLOR_0" : 8
                    },
                    "indices" : 9
                }
            ]
        },
        {
            "name" : "Cylinder.024",
            "primitives" : [
                {
                    "attributes" : {
                        "POSITION" : 10,
                        "NORMAL" : 11,
                        "TEXCOORD_0" : 12,
                        "COLOR_0" : 13
                    },
                    "indices" : 14
                }
            ]
        },
        {
            "name" : "Cylinder.025",
            "primitives" : [
                {
                    "attributes" : {
                        "POSITION" : 15,
                        "NORMAL" : 16,
                        "TEXCOORD_0" : 17,
                        "COLOR_0" : 18
                    },
                    "indices" : 14
                }
            ]
        }
    ],
    "accessors" : [
        {
            "bufferView" : 0,
            "componentType" : 5126,
            "count" : 1282,
            "max" : [
                1.5878509283065796,
                0.05502782762050629,
                0.7997225522994995
            ],
            "min" : [
                -1.587851643562317,
                -0.007886507548391819,
                -0.7997225522994995
            ],
            "type" : "VEC3"
        },
        {
            "bufferView" : 1,
            "componentType" : 5126,
            "count" : 1282,
            "type" : "VEC3"
        },
        {
            "bufferView" : 2,
            "componentType" : 5126,
            "count" : 1282,
            "type" : "VEC2"
        },
        {
            "bufferView" : 3,
            "componentType" : 5126,
            "count" : 1282,
            "type" : "VEC4"
        },
        {
            "bufferView" : 4,
            "componentType" : 5123,
            "count" : 7680,
            "type" : "SCALAR"
        },
        {
            "bufferView" : 5,
            "componentType" : 5126,
            "count" : 1833,
            "max" : [
                0.9246619939804077,
                -0.5058316588401794,
                0.9463763236999512
            ],
            "min" : [
                -0.9374977946281433,
                -1.159989833831787,
                -0.9918127655982971
            ],
            "type" : "VEC3"
        },
        {
            "bufferView" : 6,
            "componentType" : 5126,
            "count" : 1833,
            "type" : "VEC3"
        },
        {
            "bufferView" : 7,
            "componentType" : 5126,
            "count" : 1833,
            "type" : "VEC2"
        },
        {
            "bufferView" : 8,
            "componentType" : 5126,
            "count" : 1833,
            "type" : "VEC4"
        },
        {
            "bufferView" : 9,
            "componentType" : 5123,
            "count" : 6978,
            "type" : "SCALAR"
        },
        {
            "bufferView" : 10,
            "componentType" : 5126,
            "count" : 1833,
            "max" : [
                0.9246619939804077,
                -0.5180213451385498,
                0.9463763236999512
            ],
            "min" : [
                -0.9374977946281433,
                -1.159989833831787,
                -0.9918127655982971
            ],
            "type" : "VEC3"
        },
        {
            "bufferView" : 11,
            "componentType" : 5126,
            "count" : 1833,
            "type" : "VEC3"
        },
        {
            "bufferView" : 12,
            "componentType" : 5126,
            "count" : 1833,
            "type" : "VEC2"
        },
        {
            "bufferView" : 13,
            "componentType" : 5126,
            "count" : 1833,
            "type" : "VEC4"
        },
        {
            "bufferView" : 14,
            "componentType" : 5123,
            "count" : 6978,
            "type" : "SCALAR"
        },
        {
            "bufferView" : 15,
            "componentType" : 5126,
            "count" : 1833,
            "max" : [
                0.9246619939804077,
                -0.5180213451385498,
                0.9463763236999512
            ],
            "min" : [
                -0.9374977946281433,
                -1.159989833831787,
                -0.9918127655982971
            ],
            "type" : "VEC3"
        },
        {
            "bufferView" : 16,
            "componentType" : 5126,
            "count" : 1833,
            "type" : "VEC3"
        },
        {
            "bufferView" : 17,
            "componentType" : 5126,
            "count" : 1833,
            "type" : "VEC2"
        },
        {
            "bufferView" : 18,
            "componentType" : 5126,
            "count" : 1833,
            "type" : "VEC4"
        }
    ],
    "bufferViews" : [
        {
            "buffer" : 0,
            "byteLength" : 15384,
            "byteOffset" : 0
        },
        {
            "buffer" : 0,
            "byteLength" : 15384,
            "byteOffset" : 15384
        },
        {
            "buffer" : 0,
            "byteLength" : 10256,
            "byteOffset" : 30768
        },
        {
            "buffer" : 0,
            "byteLength" : 20512,
            "byteOffset" : 41024
        },
        {
            "buffer" : 0,
            "byteLength" : 15360,
            "byteOffset" : 61536
        },
        {
            "buffer" : 0,
            "byteLength" : 21996,
            "byteOffset" : 76896
        },
        {
            "buffer" : 0,
            "byteLength" : 21996,
            "byteOffset" : 98892
        },
        {
            "buffer" : 0,
            "byteLength" : 14664,
            "byteOffset" : 120888
        },
        {
            "buffer" : 0,
            "byteLength" : 29328,
            "byteOffset" : 135552
        },
        {
            "buffer" : 0,
            "byteLength" : 13956,
            "byteOffset" : 164880
        },
        {
            "buffer" : 0,
            "byteLength" : 21996,
            "byteOffset" : 178836
        },
        {
            "buffer" : 0,
            "byteLength" : 21996,
            "byteOffset" : 200832
        },
        {
            "buffer" : 0,
            "byteLength" : 14664,
            "byteOffset" : 222828
        },
        {
            "buffer" : 0,
            "byteLength" : 29328,
            "byteOffset" : 237492
        },
        {
            "buffer" : 0,
            "byteLength" : 13956,
            "byteOffset" : 266820
        },
        {
            "buffer" : 0,
            "byteLength" : 21996,
            "byteOffset" : 280776
        },
        {
            "buffer" : 0,
            "byteLength" : 21996,
            "byteOffset" : 302772
        },
        {
            "buffer" : 0,
            "byteLength" : 14664,
            "byteOffset" : 324768
        },
        {
            "buffer" : 0,
            "byteLength" : 29328,
            "byteOffset" : 339432
        }
    ],
    "buffers" : [
        {
            "byteLength" : 368760,
            "uri" : "data:application/octet-stream;base64,"
        }
    ]
}
