{
    "asset" : {
        "generator" : "Khronos glTF Blender I/O v1.3.48",
        "version" : "2.0"
    },
    "scene" : 0,
    "scenes" : [
        {
            "name" : "Scene",
            "nodes" : [
                0
            ]
        }
    ],
    "nodes" : [
        {
            "mesh" : 0,
            "name" : "Cylinder.014",
            "translation" : [
                0.01442142203450203,
                0.7987853288650513,
                0.06701231002807617
            ]
        }
    ],
    "meshes" : [
        {
            "name" : "Cylinder.011",
            "primitives" : [
                {
                    "attributes" : {
                        "POSITION" : 0,
                        "NORMAL" : 1,
                        "TEXCOORD_0" : 2,
                        "COLOR_0" : 3
                    },
                    "indices" : 4
                }
            ]
        }
    ],
    "accessors" : [
        {
            "bufferView" : 0,
            "componentType" : 5126,
            "count" : 1216,
            "max" : [
                0.4414511024951935,
                1.1764658689498901,
                0.4197186529636383
            ],
            "min" : [
                -0.4355078935623169,
                -0.8464029431343079,
                -0.41971802711486816
            ],
            "type" : "VEC3"
        },
        {
            "bufferView" : 1,
            "componentType" : 5126,
            "count" : 1216,
            "type" : "VEC3"
        },
        {
            "bufferView" : 2,
            "componentType" : 5126,
            "count" : 1216,
            "type" : "VEC2"
        },
        {
            "bufferView" : 3,
            "componentType" : 5126,
            "count" : 1216,
            "type" : "VEC4"
        },
        {
            "bufferView" : 4,
            "componentType" : 5123,
            "count" : 1908,
            "type" : "SCALAR"
        }
    ],
    "bufferViews" : [
        {
            "buffer" : 0,
            "byteLength" : 14592,
            "byteOffset" : 0
        },
        {
            "buffer" : 0,
            "byteLength" : 14592,
            "byteOffset" : 14592
        },
        {
            "buffer" : 0,
            "byteLength" : 9728,
            "byteOffset" : 29184
        },
        {
            "buffer" : 0,
            "byteLength" : 19456,
            "byteOffset" : 38912
        },
        {
            "buffer" : 0,
            "byteLength" : 3816,
            "byteOffset" : 58368
        }
    ],
    "buffers" : [
        {
            "byteLength" : 62184,
            "uri" : "data:application/octet-stream;base64,"
        }
    ]
}
