{
    "asset" : {
        "generator" : "Khronos glTF Blender I/O v1.3.48",
        "version" : "2.0"
    },
    "scene" : 0,
    "scenes" : [
        {
            "name" : "Scene",
            "nodes" : [
                0
            ]
        }
    ],
    "nodes" : [
        {
            "mesh" : 0,
            "name" : "Plane.023",
            "rotation" : [
                0.5,
                0.5,
                -0.5,
                0.4999999701976776
            ],
            "scale" : [
                0.18353271484375,
                0.18353271484375,
                0.18353271484375
            ],
            "translation" : [
                -4.202381134033203,
                0.3703787326812744,
                -4.177055835723877
            ]
        }
    ],
    "materials" : [
        {
            "doubleSided" : true,
            "emissiveFactor" : [
                0,
                0,
                0
            ],
            "name" : "Material",
            "pbrMetallicRoughness" : {
                "baseColorTexture" : {
                    "index" : 0,
                    "texCoord" : 0
                },
                "metallicFactor" : 0,
                "roughnessFactor" : 0.5
            }
        }
    ],
    "meshes" : [
        {
            "name" : "Plane.026",
            "primitives" : [
                {
                    "attributes" : {
                        "POSITION" : 0,
                        "NORMAL" : 1,
                        "TEXCOORD_0" : 2,
                        "COLOR_0" : 3
                    },
                    "indices" : 4,
                    "material" : 0
                }
            ]
        }
    ],
    "textures" : [
        {
            "source" : 0
        }
    ],
    "images" : [
        {
            "bufferView" : 5,
            "mimeType" : "image/png",
            "name" : "f5"
        }
    ],
    "accessors" : [
        {
            "bufferView" : 0,
            "componentType" : 5126,
            "count" : 1620,
            "max" : [
                8.151524543762207,
                5.865538120269775,
                0.9545808434486389
            ],
            "min" : [
                -11.644505500793457,
                -5.864108562469482,
                -3.5488996505737305
            ],
            "type" : "VEC3"
        },
        {
            "bufferView" : 1,
            "componentType" : 5126,
            "count" : 1620,
            "type" : "VEC3"
        },
        {
            "bufferView" : 2,
            "componentType" : 5126,
            "count" : 1620,
            "type" : "VEC2"
        },
        {
            "bufferView" : 3,
            "componentType" : 5126,
            "count" : 1620,
            "type" : "VEC4"
        },
        {
            "bufferView" : 4,
            "componentType" : 5123,
            "count" : 2484,
            "type" : "SCALAR"
        }
    ],
    "bufferViews" : [
        {
            "buffer" : 0,
            "byteLength" : 19440,
            "byteOffset" : 0
        },
        {
            "buffer" : 0,
            "byteLength" : 19440,
            "byteOffset" : 19440
        },
        {
            "buffer" : 0,
            "byteLength" : 12960,
            "byteOffset" : 38880
        },
        {
            "buffer" : 0,
            "byteLength" : 25920,
            "byteOffset" : 51840
        },
        {
            "buffer" : 0,
            "byteLength" : 4968,
            "byteOffset" : 77760
        },
        {
            "buffer" : 0,
            "byteLength" : 218833,
            "byteOffset" : 82728
        }
    ],
    "buffers" : [
        {
            "byteLength" : 301564,
            "uri" : "data:application/octet-stream;base64,"
        }
    ]
}
