{
    "asset" : {
        "generator" : "Khronos glTF Blender I/O v1.3.48",
        "version" : "2.0"
    },
    "scene" : 0,
    "scenes" : [
        {
            "name" : "Scene",
            "nodes" : [
                0,
                1,
                2,
                3
            ]
        }
    ],
    "nodes" : [
        {
            "mesh" : 0,
            "name" : "Torus.004",
            "scale" : [
                0.5285555720329285,
                0.5974549651145935,
                0.5285555720329285
            ],
            "translation" : [
                0,
                0.8979488015174866,
                0
            ]
        },
        {
            "mesh" : 1,
            "name" : "Sphere",
            "scale" : [
                0.9187849164009094,
                0.9187849164009094,
                0.9187849164009094
            ],
            "translation" : [
                0,
                1.3330810070037842,
                0
            ]
        },
        {
            "mesh" : 2,
            "name" : "Cylinder",
            "scale" : [
                0.02333158254623413,
                0.9965488910675049,
                0.02333158254623413
            ],
            "translation" : [
                -0.09419520944356918,
                0.9655463099479675,
                -0.019705573096871376
            ]
        },
        {
            "mesh" : 3,
            "name" : "Cylinder.001",
            "rotation" : [
                0,
                0.9223902225494385,
                0,
                0.3862592875957489
            ],
            "scale" : [
                0.02333158254623413,
                0.9965488910675049,
                0.02333158254623413
            ],
            "translation" : [
                0.03422281891107559,
                0.9655463099479675,
                0.0838712826371193
            ]
        }
    ],
    "materials" : [
        {
            "alphaMode" : "BLEND",
            "doubleSided" : true,
            "emissiveFactor" : [
                0,
                0,
                0
            ],
            "name" : "Material.001",
            "pbrMetallicRoughness" : {
                "baseColorFactor" : [
                    0.6738485097885132,
                    0.6738485097885132,
                    0.6738485097885132,
                    0.5035461187362671
                ],
                "metallicFactor" : 0,
                "roughnessFactor" : 0.5
            }
        }
    ],
    "meshes" : [
        {
            "name" : "Torus.004",
            "primitives" : [
                {
                    "attributes" : {
                        "POSITION" : 0,
                        "NORMAL" : 1,
                        "TEXCOORD_0" : 2,
                        "COLOR_0" : 3
                    },
                    "indices" : 4
                }
            ]
        },
        {
            "name" : "Sphere",
            "primitives" : [
                {
                    "attributes" : {
                        "POSITION" : 5,
                        "NORMAL" : 6,
                        "TEXCOORD_0" : 7
                    },
                    "indices" : 8,
                    "material" : 0
                }
            ]
        },
        {
            "name" : "Cylinder",
            "primitives" : [
                {
                    "attributes" : {
                        "POSITION" : 9,
                        "NORMAL" : 10,
                        "TEXCOORD_0" : 11,
                        "COLOR_0" : 12
                    },
                    "indices" : 13
                }
            ]
        },
        {
            "name" : "Cylinder.001",
            "primitives" : [
                {
                    "attributes" : {
                        "POSITION" : 14,
                        "NORMAL" : 15,
                        "TEXCOORD_0" : 16,
                        "COLOR_0" : 17
                    },
                    "indices" : 13
                }
            ]
        }
    ],
    "accessors" : [
        {
            "bufferView" : 0,
            "componentType" : 5126,
            "count" : 11520,
            "max" : [
                1.25,
                0.25,
                1.25
            ],
            "min" : [
                -1.25,
                -1.7038402557373047,
                -1.25
            ],
            "type" : "VEC3"
        },
        {
            "bufferView" : 1,
            "componentType" : 5126,
            "count" : 11520,
            "type" : "VEC3"
        },
        {
            "bufferView" : 2,
            "componentType" : 5126,
            "count" : 11520,
            "type" : "VEC2"
        },
        {
            "bufferView" : 3,
            "componentType" : 5126,
            "count" : 11520,
            "type" : "VEC4"
        },
        {
            "bufferView" : 4,
            "componentType" : 5123,
            "count" : 17280,
            "type" : "SCALAR"
        },
        {
            "bufferView" : 5,
            "componentType" : 5126,
            "count" : 1984,
            "max" : [
                1.3113417625427246,
                2.255173444747925,
                1.311392903327942
            ],
            "min" : [
                -1.3112995624542236,
                -1.3078477382659912,
                -1.311348795890808
            ],
            "type" : "VEC3"
        },
        {
            "bufferView" : 6,
            "componentType" : 5126,
            "count" : 1984,
            "type" : "VEC3"
        },
        {
            "bufferView" : 7,
            "componentType" : 5126,
            "count" : 1984,
            "type" : "VEC2"
        },
        {
            "bufferView" : 8,
            "componentType" : 5123,
            "count" : 2880,
            "type" : "SCALAR"
        },
        {
            "bufferView" : 9,
            "componentType" : 5126,
            "count" : 1898,
            "max" : [
                1,
                1,
                1
            ],
            "min" : [
                -1,
                -1,
                -24.97551727294922
            ],
            "type" : "VEC3"
        },
        {
            "bufferView" : 10,
            "componentType" : 5126,
            "count" : 1898,
            "type" : "VEC3"
        },
        {
            "bufferView" : 11,
            "componentType" : 5126,
            "count" : 1898,
            "type" : "VEC2"
        },
        {
            "bufferView" : 12,
            "componentType" : 5126,
            "count" : 1898,
            "type" : "VEC4"
        },
        {
            "bufferView" : 13,
            "componentType" : 5123,
            "count" : 3060,
            "type" : "SCALAR"
        },
        {
            "bufferView" : 14,
            "componentType" : 5126,
            "count" : 1898,
            "max" : [
                1,
                1,
                1
            ],
            "min" : [
                -1,
                -1,
                -24.97551727294922
            ],
            "type" : "VEC3"
        },
        {
            "bufferView" : 15,
            "componentType" : 5126,
            "count" : 1898,
            "type" : "VEC3"
        },
        {
            "bufferView" : 16,
            "componentType" : 5126,
            "count" : 1898,
            "type" : "VEC2"
        },
        {
            "bufferView" : 17,
            "componentType" : 5126,
            "count" : 1898,
            "type" : "VEC4"
        }
    ],
    "bufferViews" : [
        {
            "buffer" : 0,
            "byteLength" : 138240,
            "byteOffset" : 0
        },
        {
            "buffer" : 0,
            "byteLength" : 138240,
            "byteOffset" : 138240
        },
        {
            "buffer" : 0,
            "byteLength" : 92160,
            "byteOffset" : 276480
        },
        {
            "buffer" : 0,
            "byteLength" : 184320,
            "byteOffset" : 368640
        },
        {
            "buffer" : 0,
            "byteLength" : 34560,
            "byteOffset" : 552960
        },
        {
            "buffer" : 0,
            "byteLength" : 23808,
            "byteOffset" : 587520
        },
        {
            "buffer" : 0,
            "byteLength" : 23808,
            "byteOffset" : 611328
        },
        {
            "buffer" : 0,
            "byteLength" : 15872,
            "byteOffset" : 635136
        },
        {
            "buffer" : 0,
            "byteLength" : 5760,
            "byteOffset" : 651008
        },
        {
            "buffer" : 0,
            "byteLength" : 22776,
            "byteOffset" : 656768
        },
        {
            "buffer" : 0,
            "byteLength" : 22776,
            "byteOffset" : 679544
        },
        {
            "buffer" : 0,
            "byteLength" : 15184,
            "byteOffset" : 702320
        },
        {
            "buffer" : 0,
            "byteLength" : 30368,
            "byteOffset" : 717504
        },
        {
            "buffer" : 0,
            "byteLength" : 6120,
            "byteOffset" : 747872
        },
        {
            "buffer" : 0,
            "byteLength" : 22776,
            "byteOffset" : 753992
        },
        {
            "buffer" : 0,
            "byteLength" : 22776,
            "byteOffset" : 776768
        },
        {
            "buffer" : 0,
            "byteLength" : 15184,
            "byteOffset" : 799544
        },
        {
            "buffer" : 0,
            "byteLength" : 30368,
            "byteOffset" : 814728
        }
    ],
    "buffers" : [
        {
            "byteLength" : 845096,
            "uri" : "data:application/octet-stream;base64,"
        }
    ]
}
