{
    "asset" : {
        "generator" : "Khronos glTF Blender I/O v0.9.36",
        "version" : "2.0"
    },
    "scene" : 0,
    "scenes" : [
        {
            "name" : "Scene",
            "nodes" : [
                0,
                6
            ]
        }
    ],
    "nodes" : [
        {
            "name" : "Camera",
            "rotation" : [
                0.483536034822464,
                0.33687159419059753,
                -0.20870360732078552,
                0.7804827094078064
            ],
            "translation" : [
                6.899080753326416,
                4.958309173583984,
                4.814721584320068
            ]
        },
        {
            "name" : "mag",
            "rotation" : [
                7.44311776657014e-08,
                -2.157000444924506e-08,
                0.9369459748268127,
                0.3494742214679718
            ],
            "scale" : [
                0.999999463558197,
                0.9999999403953552,
                1
            ],
            "translation" : [
                -0.9198763966560364,
                0.13024702668190002,
                0.016058554872870445
            ]
        },
        {
            "name" : "trigger",
            "rotation" : [
                -1.0608626155317324e-07,
                5.597622987352224e-08,
                0.9017894268035889,
                0.43217581510543823
            ],
            "translation" : [
                -0.23789626359939575,
                0.09650951623916626,
                0.016058489680290222
            ]
        },
        {
            "children" : [
                1,
                2
            ],
            "name" : "root",
            "rotation" : [
                7.817731351167367e-09,
                -4.397473940542795e-09,
                0.3028566539287567,
                0.9530361294746399
            ]
        },
        {
            "mesh" : 0,
            "name" : "m4",
            "skin" : 0,
            "translation" : [
                -0.4856733977794647,
                0.17247076332569122,
                0.06262767314910889
            ]
        },
        {
            "mesh" : 1,
            "name" : "mag",
            "skin" : 1,
            "translation" : [
                -0.4960552752017975,
                0.19093827903270721,
                0.06319534778594971
            ]
        },
        {
            "children" : [
                4,
                5,
                3
            ],
            "name" : "Armature",
            "translation" : [
                0.6493459939956665,
                0.1447400599718094,
                -0.11891448497772217
            ]
        }
    ],
    "meshes" : [
        {
            "name" : "m4",
            "primitives" : [
                {
                    "attributes" : {
                        "POSITION" : 0,
                        "NORMAL" : 1,
                        "TEXCOORD_0" : 2,
                        "JOINTS_0" : 3,
                        "WEIGHTS_0" : 4
                    },
                    "indices" : 5
                }
            ]
        },
        {
            "name" : "Plane.016",
            "primitives" : [
                {
                    "attributes" : {
                        "POSITION" : 7,
                        "NORMAL" : 8,
                        "TEXCOORD_0" : 9,
                        "JOINTS_0" : 10,
                        "WEIGHTS_0" : 11
                    },
                    "indices" : 12
                }
            ]
        }
    ],
    "skins" : [
        {
            "inverseBindMatrices" : 6,
            "joints" : [
                3,
                1,
                2
            ],
            "name" : "Armature"
        },
        {
            "inverseBindMatrices" : 13,
            "joints" : [
                3,
                1,
                2
            ],
            "name" : "Armature"
        }
    ],
    "accessors" : [
        {
            "bufferView" : 0,
            "componentType" : 5126,
            "count" : 1079,
            "max" : [
                1.7893190383911133,
                0.5175920724868774,
                0.06644244492053986
            ],
            "min" : [
                -3.016768217086792,
                -0.8546959161758423,
                -0.18860791623592377
            ],
            "type" : "VEC3"
        },
        {
            "bufferView" : 1,
            "componentType" : 5126,
            "count" : 1079,
            "type" : "VEC3"
        },
        {
            "bufferView" : 2,
            "componentType" : 5126,
            "count" : 1079,
            "type" : "VEC2"
        },
        {
            "bufferView" : 3,
            "componentType" : 5123,
            "count" : 1079,
            "type" : "VEC4"
        },
        {
            "bufferView" : 4,
            "componentType" : 5126,
            "count" : 1079,
            "type" : "VEC4"
        },
        {
            "bufferView" : 5,
            "componentType" : 5123,
            "count" : 1743,
            "type" : "SCALAR"
        },
        {
            "bufferView" : 6,
            "componentType" : 5126,
            "count" : 3,
            "type" : "MAT4"
        },
        {
            "bufferView" : 7,
            "componentType" : 5126,
            "count" : 56,
            "max" : [
                -0.16426841914653778,
                -0.3351805508136749,
                -0.01999925635755062
            ],
            "min" : [
                -0.633257269859314,
                -1.1768344640731812,
                -0.08518891781568527
            ],
            "type" : "VEC3"
        },
        {
            "bufferView" : 8,
            "componentType" : 5126,
            "count" : 56,
            "type" : "VEC3"
        },
        {
            "bufferView" : 9,
            "componentType" : 5126,
            "count" : 56,
            "type" : "VEC2"
        },
        {
            "bufferView" : 10,
            "componentType" : 5123,
            "count" : 56,
            "type" : "VEC4"
        },
        {
            "bufferView" : 11,
            "componentType" : 5126,
            "count" : 56,
            "type" : "VEC4"
        },
        {
            "bufferView" : 12,
            "componentType" : 5123,
            "count" : 84,
            "type" : "SCALAR"
        },
        {
            "bufferView" : 13,
            "componentType" : 5126,
            "count" : 3,
            "type" : "MAT4"
        }
    ],
    "bufferViews" : [
        {
            "buffer" : 0,
            "byteLength" : 12948,
            "byteOffset" : 0
        },
        {
            "buffer" : 0,
            "byteLength" : 12948,
            "byteOffset" : 12948
        },
        {
            "buffer" : 0,
            "byteLength" : 8632,
            "byteOffset" : 25896
        },
        {
            "buffer" : 0,
            "byteLength" : 8632,
            "byteOffset" : 34528
        },
        {
            "buffer" : 0,
            "byteLength" : 17264,
            "byteOffset" : 43160
        },
        {
            "buffer" : 0,
            "byteLength" : 3486,
            "byteOffset" : 60424
        },
        {
            "buffer" : 0,
            "byteLength" : 192,
            "byteOffset" : 63912
        },
        {
            "buffer" : 0,
            "byteLength" : 672,
            "byteOffset" : 64104
        },
        {
            "buffer" : 0,
            "byteLength" : 672,
            "byteOffset" : 64776
        },
        {
            "buffer" : 0,
            "byteLength" : 448,
            "byteOffset" : 65448
        },
        {
            "buffer" : 0,
            "byteLength" : 448,
            "byteOffset" : 65896
        },
        {
            "buffer" : 0,
            "byteLength" : 896,
            "byteOffset" : 66344
        },
        {
            "buffer" : 0,
            "byteLength" : 168,
            "byteOffset" : 67240
        },
        {
            "buffer" : 0,
            "byteLength" : 192,
            "byteOffset" : 67408
        }
    ],
    "buffers" : [
        {
            "byteLength" : 67600,
            "uri" : "data:application/octet-stream;base64,"
        }
    ]
}
