{
    "asset" : {
        "generator" : "Khronos glTF Blender I/O v1.3.48",
        "version" : "2.0"
    },
    "scene" : 0,
    "scenes" : [
        {
            "name" : "Scene",
            "nodes" : [
                0
            ]
        }
    ],
    "nodes" : [
        {
            "mesh" : 0,
            "name" : "Cone",
            "scale" : [
                0.20093803107738495,
                0.322730153799057,
                0.20093803107738495
            ],
            "translation" : [
                0,
                1.314355731010437,
                0
            ]
        }
    ],
    "materials" : [
        {
            "doubleSided" : true,
            "emissiveFactor" : [
                0,
                0,
                0
            ],
            "name" : "Material.001",
            "pbrMetallicRoughness" : {
                "baseColorTexture" : {
                    "index" : 0,
                    "texCoord" : 0
                },
                "metallicFactor" : 0,
                "roughnessFactor" : 0.5
            }
        }
    ],
    "meshes" : [
        {
            "name" : "Cone",
            "primitives" : [
                {
                    "attributes" : {
                        "POSITION" : 0,
                        "NORMAL" : 1,
                        "TEXCOORD_0" : 2
                    },
                    "indices" : 3,
                    "material" : 0
                }
            ]
        }
    ],
    "textures" : [
        {
            "source" : 0
        }
    ],
    "images" : [
        {
            "bufferView" : 4,
            "mimeType" : "image/png",
            "name" : "Material"
        }
    ],
    "accessors" : [
        {
            "bufferView" : 0,
            "componentType" : 5126,
            "count" : 1520,
            "max" : [
                2.0894479751586914,
                0.791258692741394,
                2.0894484519958496
            ],
            "min" : [
                -2.0894484519958496,
                -4.05689811706543,
                -2.0894479751586914
            ],
            "type" : "VEC3"
        },
        {
            "bufferView" : 1,
            "componentType" : 5126,
            "count" : 1520,
            "type" : "VEC3"
        },
        {
            "bufferView" : 2,
            "componentType" : 5126,
            "count" : 1520,
            "type" : "VEC2"
        },
        {
            "bufferView" : 3,
            "componentType" : 5123,
            "count" : 2388,
            "type" : "SCALAR"
        }
    ],
    "bufferViews" : [
        {
            "buffer" : 0,
            "byteLength" : 18240,
            "byteOffset" : 0
        },
        {
            "buffer" : 0,
            "byteLength" : 18240,
            "byteOffset" : 18240
        },
        {
            "buffer" : 0,
            "byteLength" : 12160,
            "byteOffset" : 36480
        },
        {
            "buffer" : 0,
            "byteLength" : 4776,
            "byteOffset" : 48640
        },
        {
            "buffer" : 0,
            "byteLength" : 44008,
            "byteOffset" : 53416
        }
    ],
    "buffers" : [
        {
            "byteLength" : 97424,
            "uri" : "data:application/octet-stream;base64,"
        }
    ]
}
