{
    "asset" : {
        "generator" : "Khronos glTF Blender I/O v1.3.48",
        "version" : "2.0"
    },
    "scene" : 0,
    "scenes" : [
        {
            "name" : "Scene",
            "nodes" : [
                0
            ]
        }
    ],
    "nodes" : [
        {
            "mesh" : 0,
            "name" : "Circle",
            "scale" : [
                0.19727104902267456,
                0.19727104902267456,
                0.19727104902267456
            ],
            "translation" : [
                0.00017905235290527344,
                0,
                0
            ]
        }
    ],
    "meshes" : [
        {
            "name" : "Circle",
            "primitives" : [
                {
                    "attributes" : {
                        "POSITION" : 0,
                        "NORMAL" : 1,
                        "TEXCOORD_0" : 2,
                        "COLOR_0" : 3
                    },
                    "indices" : 4
                }
            ]
        }
    ],
    "accessors" : [
        {
            "bufferView" : 0,
            "componentType" : 5126,
            "count" : 992,
            "max" : [
                1.0028564929962158,
                0,
                1.0028564929962158
            ],
            "min" : [
                -1.0028564929962158,
                -0.11070874333381653,
                -1.0028564929962158
            ],
            "type" : "VEC3"
        },
        {
            "bufferView" : 1,
            "componentType" : 5126,
            "count" : 992,
            "type" : "VEC3"
        },
        {
            "bufferView" : 2,
            "componentType" : 5126,
            "count" : 992,
            "type" : "VEC2"
        },
        {
            "bufferView" : 3,
            "componentType" : 5126,
            "count" : 992,
            "type" : "VEC4"
        },
        {
            "bufferView" : 4,
            "componentType" : 5123,
            "count" : 1896,
            "type" : "SCALAR"
        }
    ],
    "bufferViews" : [
        {
            "buffer" : 0,
            "byteLength" : 11904,
            "byteOffset" : 0
        },
        {
            "buffer" : 0,
            "byteLength" : 11904,
            "byteOffset" : 11904
        },
        {
            "buffer" : 0,
            "byteLength" : 7936,
            "byteOffset" : 23808
        },
        {
            "buffer" : 0,
            "byteLength" : 15872,
            "byteOffset" : 31744
        },
        {
            "buffer" : 0,
            "byteLength" : 3792,
            "byteOffset" : 47616
        }
    ],
    "buffers" : [
        {
            "byteLength" : 51408,
            "uri" : "data:application/octet-stream;base64,"
        }
    ]
}
