{
    "asset" : {
        "generator" : "Khronos glTF Blender I/O v1.3.48",
        "version" : "2.0"
    },
    "scene" : 0,
    "scenes" : [
        {
            "name" : "Scene",
            "nodes" : [
                0,
                1,
                2,
                3,
                4
            ]
        }
    ],
    "nodes" : [
        {
            "mesh" : 0,
            "name" : "porsche",
            "translation" : [
                0.1956384778022766,
                -0.6772100329399109,
                0.16506600379943848
            ]
        },
        {
            "mesh" : 1,
            "name" : "Cube.004",
            "translation" : [
                1.7639381885528564,
                -0.7349709868431091,
                -1.1869744062423706
            ]
        },
        {
            "mesh" : 2,
            "name" : "Cube.001",
            "translation" : [
                -2.021270513534546,
                -0.7349709868431091,
                -1.1300297975540161
            ]
        },
        {
            "mesh" : 3,
            "name" : "Cube.002",
            "rotation" : [
                1,
                0,
                0,
                -1.6292068494294654e-07
            ],
            "translation" : [
                1.7636610269546509,
                -0.7426086068153381,
                1.518651008605957
            ]
        },
        {
            "mesh" : 4,
            "name" : "Cube.003",
            "rotation" : [
                1,
                0,
                0,
                -1.6292068494294654e-07
            ],
            "translation" : [
                -1.9923244714736938,
                -0.7426086068153381,
                1.4704558849334717
            ]
        }
    ],
    "materials" : [
        {
            "doubleSided" : true,
            "emissiveFactor" : [
                0,
                0,
                0
            ],
            "name" : "Material.001",
            "pbrMetallicRoughness" : {
                "baseColorTexture" : {
                    "index" : 0,
                    "texCoord" : 0
                },
                "metallicFactor" : 0,
                "roughnessFactor" : 0.5
            }
        },
        {
            "doubleSided" : true,
            "emissiveFactor" : [
                0,
                0,
                0
            ],
            "name" : "Material",
            "pbrMetallicRoughness" : {
                "baseColorTexture" : {
                    "index" : 1,
                    "texCoord" : 0
                },
                "metallicFactor" : 0,
                "roughnessFactor" : 0.5
            }
        }
    ],
    "meshes" : [
        {
            "name" : "Cube.004",
            "primitives" : [
                {
                    "attributes" : {
                        "POSITION" : 0,
                        "NORMAL" : 1,
                        "TEXCOORD_0" : 2
                    },
                    "indices" : 3,
                    "material" : 0
                }
            ]
        },
        {
            "name" : "Cube.006",
            "primitives" : [
                {
                    "attributes" : {
                        "POSITION" : 4,
                        "NORMAL" : 5,
                        "TEXCOORD_0" : 6,
                        "COLOR_0" : 7
                    },
                    "indices" : 8,
                    "material" : 1
                }
            ]
        },
        {
            "name" : "Cube.001",
            "primitives" : [
                {
                    "attributes" : {
                        "POSITION" : 9,
                        "NORMAL" : 10,
                        "TEXCOORD_0" : 11,
                        "COLOR_0" : 12
                    },
                    "indices" : 8,
                    "material" : 1
                }
            ]
        },
        {
            "name" : "Cube.002",
            "primitives" : [
                {
                    "attributes" : {
                        "POSITION" : 13,
                        "NORMAL" : 14,
                        "TEXCOORD_0" : 15,
                        "COLOR_0" : 16
                    },
                    "indices" : 8,
                    "material" : 1
                }
            ]
        },
        {
            "name" : "Cube.003",
            "primitives" : [
                {
                    "attributes" : {
                        "POSITION" : 17,
                        "NORMAL" : 18,
                        "TEXCOORD_0" : 19,
                        "COLOR_0" : 20
                    },
                    "indices" : 8,
                    "material" : 1
                }
            ]
        }
    ],
    "textures" : [
        {
            "source" : 0
        },
        {
            "source" : 1
        }
    ],
    "images" : [
        {
            "bufferView" : 4,
            "mimeType" : "image/png",
            "name" : "porschecolor1"
        },
        {
            "bufferView" : 10,
            "mimeType" : "image/png",
            "name" : "wheel"
        }
    ],
    "accessors" : [
        {
            "bufferView" : 0,
            "componentType" : 5126,
            "count" : 2003,
            "max" : [
                3.0622942447662354,
                1.2859841585159302,
                1.3593591451644897
            ],
            "min" : [
                -3.6623528003692627,
                -0.34269508719444275,
                -1.3593591451644897
            ],
            "type" : "VEC3"
        },
        {
            "bufferView" : 1,
            "componentType" : 5126,
            "count" : 2003,
            "type" : "VEC3"
        },
        {
            "bufferView" : 2,
            "componentType" : 5126,
            "count" : 2003,
            "type" : "VEC2"
        },
        {
            "bufferView" : 3,
            "componentType" : 5123,
            "count" : 5544,
            "type" : "SCALAR"
        },
        {
            "bufferView" : 5,
            "componentType" : 5126,
            "count" : 7832,
            "max" : [
                0.42949843406677246,
                0.431539386510849,
                0.2508739233016968
            ],
            "min" : [
                -0.4299137592315674,
                -0.4278726875782013,
                -0.0762706995010376
            ],
            "type" : "VEC3"
        },
        {
            "bufferView" : 6,
            "componentType" : 5126,
            "count" : 7832,
            "type" : "VEC3"
        },
        {
            "bufferView" : 7,
            "componentType" : 5126,
            "count" : 7832,
            "type" : "VEC2"
        },
        {
            "bufferView" : 8,
            "componentType" : 5126,
            "count" : 7832,
            "type" : "VEC4"
        },
        {
            "bufferView" : 9,
            "componentType" : 5123,
            "count" : 12708,
            "type" : "SCALAR"
        },
        {
            "bufferView" : 11,
            "componentType" : 5126,
            "count" : 7832,
            "max" : [
                0.42949843406677246,
                0.431539386510849,
                0.2508739233016968
            ],
            "min" : [
                -0.4299137592315674,
                -0.4278726875782013,
                -0.0762706995010376
            ],
            "type" : "VEC3"
        },
        {
            "bufferView" : 12,
            "componentType" : 5126,
            "count" : 7832,
            "type" : "VEC3"
        },
        {
            "bufferView" : 13,
            "componentType" : 5126,
            "count" : 7832,
            "type" : "VEC2"
        },
        {
            "bufferView" : 14,
            "componentType" : 5126,
            "count" : 7832,
            "type" : "VEC4"
        },
        {
            "bufferView" : 15,
            "componentType" : 5126,
            "count" : 7832,
            "max" : [
                0.42949843406677246,
                0.431539386510849,
                0.2508739233016968
            ],
            "min" : [
                -0.4299137592315674,
                -0.4278726875782013,
                -0.0762706995010376
            ],
            "type" : "VEC3"
        },
        {
            "bufferView" : 16,
            "componentType" : 5126,
            "count" : 7832,
            "type" : "VEC3"
        },
        {
            "bufferView" : 17,
            "componentType" : 5126,
            "count" : 7832,
            "type" : "VEC2"
        },
        {
            "bufferView" : 18,
            "componentType" : 5126,
            "count" : 7832,
            "type" : "VEC4"
        },
        {
            "bufferView" : 19,
            "componentType" : 5126,
            "count" : 7832,
            "max" : [
                0.42949843406677246,
                0.431539386510849,
                0.2508739233016968
            ],
            "min" : [
                -0.4299137592315674,
                -0.4278726875782013,
                -0.0762706995010376
            ],
            "type" : "VEC3"
        },
        {
            "bufferView" : 20,
            "componentType" : 5126,
            "count" : 7832,
            "type" : "VEC3"
        },
        {
            "bufferView" : 21,
            "componentType" : 5126,
            "count" : 7832,
            "type" : "VEC2"
        },
        {
            "bufferView" : 22,
            "componentType" : 5126,
            "count" : 7832,
            "type" : "VEC4"
        }
    ],
    "bufferViews" : [
        {
            "buffer" : 0,
            "byteLength" : 24036,
            "byteOffset" : 0
        },
        {
            "buffer" : 0,
            "byteLength" : 24036,
            "byteOffset" : 24036
        },
        {
            "buffer" : 0,
            "byteLength" : 16024,
            "byteOffset" : 48072
        },
        {
            "buffer" : 0,
            "byteLength" : 11088,
            "byteOffset" : 64096
        },
        {
            "buffer" : 0,
            "byteLength" : 195419,
            "byteOffset" : 75184
        },
        {
            "buffer" : 0,
            "byteLength" : 93984,
            "byteOffset" : 270604
        },
        {
            "buffer" : 0,
            "byteLength" : 93984,
            "byteOffset" : 364588
        },
        {
            "buffer" : 0,
            "byteLength" : 62656,
            "byteOffset" : 458572
        },
        {
            "buffer" : 0,
            "byteLength" : 125312,
            "byteOffset" : 521228
        },
        {
            "buffer" : 0,
            "byteLength" : 25416,
            "byteOffset" : 646540
        },
        {
            "buffer" : 0,
            "byteLength" : 134269,
            "byteOffset" : 671956
        },
        {
            "buffer" : 0,
            "byteLength" : 93984,
            "byteOffset" : 806228
        },
        {
            "buffer" : 0,
            "byteLength" : 93984,
            "byteOffset" : 900212
        },
        {
            "buffer" : 0,
            "byteLength" : 62656,
            "byteOffset" : 994196
        },
        {
            "buffer" : 0,
            "byteLength" : 125312,
            "byteOffset" : 1056852
        },
        {
            "buffer" : 0,
            "byteLength" : 93984,
            "byteOffset" : 1182164
        },
        {
            "buffer" : 0,
            "byteLength" : 93984,
            "byteOffset" : 1276148
        },
        {
            "buffer" : 0,
            "byteLength" : 62656,
            "byteOffset" : 1370132
        },
        {
            "buffer" : 0,
            "byteLength" : 125312,
            "byteOffset" : 1432788
        },
        {
            "buffer" : 0,
            "byteLength" : 93984,
            "byteOffset" : 1558100
        },
        {
            "buffer" : 0,
            "byteLength" : 93984,
            "byteOffset" : 1652084
        },
        {
            "buffer" : 0,
            "byteLength" : 62656,
            "byteOffset" : 1746068
        },
        {
            "buffer" : 0,
            "byteLength" : 125312,
            "byteOffset" : 1808724
        }
    ],
    "buffers" : [
        {
            "byteLength" : 1934036,
            "uri" : "data:application/octet-stream;base64,"
        }
    ]
}
