{
    "asset" : {
        "generator" : "Khronos glTF Blender I/O v1.3.48",
        "version" : "2.0"
    },
    "scene" : 0,
    "scenes" : [
        {
            "name" : "Scene",
            "nodes" : [
                4
            ]
        }
    ],
    "nodes" : [
        {
            "name" : "mag",
            "rotation" : [
                -0.09727529436349869,
                0.11193404346704483,
                0.7126165628433228,
                0.6857010126113892
            ],
            "translation" : [
                -0.08916547894477844,
                1.266745924949646,
                -0.2599885165691376
            ]
        },
        {
            "children" : [
                0
            ],
            "name" : "Bone",
            "rotation" : [
                -0.40916958451271057,
                0.5766977071762085,
                0.4091697335243225,
                0.5766976475715637
            ],
            "translation" : [
                0.765716552734375,
                -0.20047935843467712,
                0.02655014581978321
            ]
        },
        {
            "mesh" : 0,
            "name" : "Cube.008",
            "skin" : 0
        },
        {
            "mesh" : 1,
            "name" : "Cylinder.008",
            "skin" : 0
        },
        {
            "children" : [
                2,
                3,
                1
            ],
            "name" : "Armature"
        }
    ],
    "meshes" : [
        {
            "name" : "Cube.007",
            "primitives" : [
                {
                    "attributes" : {
                        "POSITION" : 0,
                        "NORMAL" : 1,
                        "TEXCOORD_0" : 2,
                        "COLOR_0" : 3,
                        "JOINTS_0" : 4,
                        "WEIGHTS_0" : 5
                    },
                    "indices" : 6
                }
            ]
        },
        {
            "name" : "Cylinder.008",
            "primitives" : [
                {
                    "attributes" : {
                        "POSITION" : 8,
                        "NORMAL" : 9,
                        "TEXCOORD_0" : 10,
                        "COLOR_0" : 11,
                        "JOINTS_0" : 12,
                        "WEIGHTS_0" : 13
                    },
                    "indices" : 14
                }
            ]
        }
    ],
    "skins" : [
        {
            "inverseBindMatrices" : 7,
            "joints" : [
                1,
                0
            ],
            "name" : "Armature"
        }
    ],
    "accessors" : [
        {
            "bufferView" : 0,
            "componentType" : 5126,
            "count" : 40,
            "max" : [
                -0.4008040130138397,
                0.004417337477207184,
                1.0669281482696533
            ],
            "min" : [
                -0.6189311146736145,
                -0.09725920110940933,
                0.05931142345070839
            ],
            "type" : "VEC3"
        },
        {
            "bufferView" : 1,
            "componentType" : 5126,
            "count" : 40,
            "type" : "VEC3"
        },
        {
            "bufferView" : 2,
            "componentType" : 5126,
            "count" : 40,
            "type" : "VEC2"
        },
        {
            "bufferView" : 3,
            "componentType" : 5126,
            "count" : 40,
            "type" : "VEC4"
        },
        {
            "bufferView" : 4,
            "componentType" : 5123,
            "count" : 40,
            "type" : "VEC4"
        },
        {
            "bufferView" : 5,
            "componentType" : 5126,
            "count" : 40,
            "type" : "VEC4"
        },
        {
            "bufferView" : 6,
            "componentType" : 5123,
            "count" : 60,
            "type" : "SCALAR"
        },
        {
            "bufferView" : 7,
            "componentType" : 5126,
            "count" : 2,
            "type" : "MAT4"
        },
        {
            "bufferView" : 8,
            "componentType" : 5126,
            "count" : 1054,
            "max" : [
                1.7902642488479614,
                0.05893160030245781,
                0.3212928771972656
            ],
            "min" : [
                -1.4891204833984375,
                -0.6720154285430908,
                -0.08348596096038818
            ],
            "type" : "VEC3"
        },
        {
            "bufferView" : 9,
            "componentType" : 5126,
            "count" : 1054,
            "type" : "VEC3"
        },
        {
            "bufferView" : 10,
            "componentType" : 5126,
            "count" : 1054,
            "type" : "VEC2"
        },
        {
            "bufferView" : 11,
            "componentType" : 5126,
            "count" : 1054,
            "type" : "VEC4"
        },
        {
            "bufferView" : 12,
            "componentType" : 5123,
            "count" : 1054,
            "type" : "VEC4"
        },
        {
            "bufferView" : 13,
            "componentType" : 5126,
            "count" : 1054,
            "type" : "VEC4"
        },
        {
            "bufferView" : 14,
            "componentType" : 5123,
            "count" : 4122,
            "type" : "SCALAR"
        }
    ],
    "bufferViews" : [
        {
            "buffer" : 0,
            "byteLength" : 480,
            "byteOffset" : 0
        },
        {
            "buffer" : 0,
            "byteLength" : 480,
            "byteOffset" : 480
        },
        {
            "buffer" : 0,
            "byteLength" : 320,
            "byteOffset" : 960
        },
        {
            "buffer" : 0,
            "byteLength" : 640,
            "byteOffset" : 1280
        },
        {
            "buffer" : 0,
            "byteLength" : 320,
            "byteOffset" : 1920
        },
        {
            "buffer" : 0,
            "byteLength" : 640,
            "byteOffset" : 2240
        },
        {
            "buffer" : 0,
            "byteLength" : 120,
            "byteOffset" : 2880
        },
        {
            "buffer" : 0,
            "byteLength" : 128,
            "byteOffset" : 3000
        },
        {
            "buffer" : 0,
            "byteLength" : 12648,
            "byteOffset" : 3128
        },
        {
            "buffer" : 0,
            "byteLength" : 12648,
            "byteOffset" : 15776
        },
        {
            "buffer" : 0,
            "byteLength" : 8432,
            "byteOffset" : 28424
        },
        {
            "buffer" : 0,
            "byteLength" : 16864,
            "byteOffset" : 36856
        },
        {
            "buffer" : 0,
            "byteLength" : 8432,
            "byteOffset" : 53720
        },
        {
            "buffer" : 0,
            "byteLength" : 16864,
            "byteOffset" : 62152
        },
        {
            "buffer" : 0,
            "byteLength" : 8244,
            "byteOffset" : 79016
        }
    ],
    "buffers" : [
        {
            "byteLength" : 87260,
            "uri" : "data:application/octet-stream;base64,"
        }
    ]
}
