{
    "asset" : {
        "generator" : "Khronos glTF Blender I/O v1.3.48",
        "version" : "2.0"
    },
    "scene" : 0,
    "scenes" : [
        {
            "name" : "Scene",
            "nodes" : [
                0,
                1
            ]
        }
    ],
    "nodes" : [
        {
            "mesh" : 0,
            "name" : "Cube.002",
            "scale" : [
                1,
                0.03367894887924194,
                1
            ],
            "translation" : [
                -0.11560344696044922,
                2.230653762817383,
                -0.12968844175338745
            ]
        },
        {
            "mesh" : 1,
            "name" : "Cylinder.011",
            "scale" : [
                0.1396593302488327,
                0.17595221102237701,
                0.1396593302488327
            ],
            "translation" : [
                -0.9233503341674805,
                2.4460906982421875,
                0.3114023804664612
            ]
        }
    ],
    "meshes" : [
        {
            "name" : "Cube.001",
            "primitives" : [
                {
                    "attributes" : {
                        "POSITION" : 0,
                        "NORMAL" : 1,
                        "TEXCOORD_0" : 2
                    },
                    "indices" : 3
                }
            ]
        },
        {
            "name" : "Cylinder.009",
            "primitives" : [
                {
                    "attributes" : {
                        "POSITION" : 4,
                        "NORMAL" : 5,
                        "TEXCOORD_0" : 6
                    },
                    "indices" : 7
                }
            ]
        }
    ],
    "accessors" : [
        {
            "bufferView" : 0,
            "componentType" : 5126,
            "count" : 70,
            "max" : [
                0.9999995231628418,
                1,
                1
            ],
            "min" : [
                -1,
                -86.75692749023438,
                -1
            ],
            "type" : "VEC3"
        },
        {
            "bufferView" : 1,
            "componentType" : 5126,
            "count" : 70,
            "type" : "VEC3"
        },
        {
            "bufferView" : 2,
            "componentType" : 5126,
            "count" : 70,
            "type" : "VEC2"
        },
        {
            "bufferView" : 3,
            "componentType" : 5123,
            "count" : 180,
            "type" : "SCALAR"
        },
        {
            "bufferView" : 4,
            "componentType" : 5126,
            "count" : 308,
            "max" : [
                1,
                1.0031609535217285,
                1
            ],
            "min" : [
                -1,
                -1.0832180976867676,
                -1.9759880304336548
            ],
            "type" : "VEC3"
        },
        {
            "bufferView" : 5,
            "componentType" : 5126,
            "count" : 308,
            "type" : "VEC3"
        },
        {
            "bufferView" : 6,
            "componentType" : 5126,
            "count" : 308,
            "type" : "VEC2"
        },
        {
            "bufferView" : 7,
            "componentType" : 5123,
            "count" : 1440,
            "type" : "SCALAR"
        }
    ],
    "bufferViews" : [
        {
            "buffer" : 0,
            "byteLength" : 840,
            "byteOffset" : 0
        },
        {
            "buffer" : 0,
            "byteLength" : 840,
            "byteOffset" : 840
        },
        {
            "buffer" : 0,
            "byteLength" : 560,
            "byteOffset" : 1680
        },
        {
            "buffer" : 0,
            "byteLength" : 360,
            "byteOffset" : 2240
        },
        {
            "buffer" : 0,
            "byteLength" : 3696,
            "byteOffset" : 2600
        },
        {
            "buffer" : 0,
            "byteLength" : 3696,
            "byteOffset" : 6296
        },
        {
            "buffer" : 0,
            "byteLength" : 2464,
            "byteOffset" : 9992
        },
        {
            "buffer" : 0,
            "byteLength" : 2880,
            "byteOffset" : 12456
        }
    ],
    "buffers" : [
        {
            "byteLength" : 15336,
            "uri" : "data:application/octet-stream;base64,"
        }
    ]
}
