{
    "asset" : {
        "generator" : "Khronos glTF Blender I/O v1.3.48",
        "version" : "2.0"
    },
    "scene" : 0,
    "scenes" : [
        {
            "name" : "Scene",
            "nodes" : [
                0,
                1,
                2,
                3,
                4,
                5,
                6
            ]
        }
    ],
    "nodes" : [
        {
            "mesh" : 0,
            "name" : "Cylinder.004",
            "rotation" : [
                -0.0030474618542939425,
                0,
                0,
                0.9999953508377075
            ],
            "scale" : [
                0.33741137385368347,
                2.1708521842956543,
                1.2224469184875488
            ],
            "translation" : [
                -0.3935096263885498,
                -0.009037971496582031,
                1.7734498977661133
            ]
        },
        {
            "mesh" : 1,
            "name" : "Cylinder.018",
            "rotation" : [
                0.7071034908294678,
                0.7071035504341125,
                -0.0021548119839280844,
                0.0021547500509768724
            ],
            "scale" : [
                0.3067547380924225,
                1.973611831665039,
                0.867058277130127
            ],
            "translation" : [
                -0.8325788378715515,
                -0.5370497703552246,
                4.7323126792907715
            ]
        },
        {
            "mesh" : 2,
            "name" : "Cylinder.025",
            "rotation" : [
                -0.0030474618542939425,
                0,
                0,
                0.9999953508377075
            ],
            "scale" : [
                0.2826475203037262,
                1.8185099363327026,
                1.2446863651275635
            ],
            "translation" : [
                -0.6772134900093079,
                -0.02093029022216797,
                -2.088841199874878
            ]
        },
        {
            "mesh" : 3,
            "name" : "Cylinder.026",
            "rotation" : [
                -0.0030474618542939425,
                0,
                0,
                0.9999953508377075
            ],
            "scale" : [
                0.3348614275455475,
                2.1544461250305176,
                0.8133813142776489
            ],
            "translation" : [
                -0.7841667532920837,
                -0.48590993881225586,
                -2.032235622406006
            ]
        },
        {
            "mesh" : 4,
            "name" : "Cylinder.003",
            "scale" : [
                0.07316547632217407,
                0.3252824544906616,
                0.07316547632217407
            ],
            "translation" : [
                -0.37783199548721313,
                1.8619141578674316,
                -1.0144697427749634
            ]
        },
        {
            "mesh" : 5,
            "name" : "Cylinder.005",
            "scale" : [
                0.07316547632217407,
                0.3252824544906616,
                0.07316547632217407
            ],
            "translation" : [
                -0.37783199548721313,
                1.8619141578674316,
                -0.31389176845550537
            ]
        },
        {
            "mesh" : 6,
            "name" : "Cylinder.006",
            "scale" : [
                0.07316547632217407,
                0.3252824544906616,
                0.07316547632217407
            ],
            "translation" : [
                -0.37783199548721313,
                1.8619141578674316,
                0.3914840817451477
            ]
        }
    ],
    "materials" : [
        {
            "doubleSided" : true,
            "emissiveFactor" : [
                0,
                0,
                0
            ],
            "name" : "Material.001",
            "pbrMetallicRoughness" : {
                "baseColorTexture" : {
                    "index" : 0,
                    "texCoord" : 0
                },
                "metallicFactor" : 0,
                "roughnessFactor" : 0.5
            }
        }
    ],
    "meshes" : [
        {
            "name" : "Cylinder.019",
            "primitives" : [
                {
                    "attributes" : {
                        "POSITION" : 0,
                        "NORMAL" : 1,
                        "TEXCOORD_0" : 2
                    },
                    "indices" : 3
                }
            ]
        },
        {
            "name" : "Cylinder.025",
            "primitives" : [
                {
                    "attributes" : {
                        "POSITION" : 4,
                        "NORMAL" : 5,
                        "TEXCOORD_0" : 6
                    },
                    "indices" : 7
                }
            ]
        },
        {
            "name" : "Cylinder.032",
            "primitives" : [
                {
                    "attributes" : {
                        "POSITION" : 8,
                        "NORMAL" : 9,
                        "TEXCOORD_0" : 10
                    },
                    "indices" : 11,
                    "material" : 0
                }
            ]
        },
        {
            "name" : "Cylinder.033",
            "primitives" : [
                {
                    "attributes" : {
                        "POSITION" : 12,
                        "NORMAL" : 13,
                        "TEXCOORD_0" : 14
                    },
                    "indices" : 15
                }
            ]
        },
        {
            "extras" : {
                "targetNames" : [
                    "Key 1"
                ]
            },
            "name" : "Cylinder.071",
            "primitives" : [
                {
                    "attributes" : {
                        "POSITION" : 16,
                        "NORMAL" : 17,
                        "TEXCOORD_0" : 18
                    },
                    "indices" : 19,
                    "targets" : [
                        {
                            "POSITION" : 20,
                            "NORMAL" : 21
                        }
                    ]
                }
            ],
            "weights" : [
                0
            ]
        },
        {
            "extras" : {
                "targetNames" : [
                    "Key 1"
                ]
            },
            "name" : "Cylinder.077",
            "primitives" : [
                {
                    "attributes" : {
                        "POSITION" : 22,
                        "NORMAL" : 23,
                        "TEXCOORD_0" : 24
                    },
                    "indices" : 19,
                    "targets" : [
                        {
                            "POSITION" : 25,
                            "NORMAL" : 26
                        }
                    ]
                }
            ],
            "weights" : [
                0
            ]
        },
        {
            "extras" : {
                "targetNames" : [
                    "Key 1"
                ]
            },
            "name" : "Cylinder.078",
            "primitives" : [
                {
                    "attributes" : {
                        "POSITION" : 27,
                        "NORMAL" : 28,
                        "TEXCOORD_0" : 29
                    },
                    "indices" : 19,
                    "targets" : [
                        {
                            "POSITION" : 30,
                            "NORMAL" : 31
                        }
                    ]
                }
            ],
            "weights" : [
                0
            ]
        }
    ],
    "textures" : [
        {
            "source" : 0
        }
    ],
    "images" : [
        {
            "bufferView" : 12,
            "mimeType" : "image/png",
            "name" : "trumpet"
        }
    ],
    "accessors" : [
        {
            "bufferView" : 0,
            "componentType" : 5126,
            "count" : 2048,
            "max" : [
                0.45906272530555725,
                0.31453007459640503,
                1.6521642208099365
            ],
            "min" : [
                -0.4591222405433655,
                -0.3756730556488037,
                -0.7807447910308838
            ],
            "type" : "VEC3"
        },
        {
            "bufferView" : 1,
            "componentType" : 5126,
            "count" : 2048,
            "type" : "VEC3"
        },
        {
            "bufferView" : 2,
            "componentType" : 5126,
            "count" : 2048,
            "type" : "VEC2"
        },
        {
            "bufferView" : 3,
            "componentType" : 5123,
            "count" : 3240,
            "type" : "SCALAR"
        },
        {
            "bufferView" : 4,
            "componentType" : 5126,
            "count" : 2320,
            "max" : [
                6.382545471191406,
                0.08482091873884201,
                1.8454807996749878
            ],
            "min" : [
                -0.38775232434272766,
                -0.06643512099981308,
                -0.8998950719833374
            ],
            "type" : "VEC3"
        },
        {
            "bufferView" : 5,
            "componentType" : 5126,
            "count" : 2320,
            "type" : "VEC3"
        },
        {
            "bufferView" : 6,
            "componentType" : 5126,
            "count" : 2320,
            "type" : "VEC2"
        },
        {
            "bufferView" : 7,
            "componentType" : 5123,
            "count" : 5544,
            "type" : "SCALAR"
        },
        {
            "bufferView" : 8,
            "componentType" : 5126,
            "count" : 7274,
            "max" : [
                8.889795303344727,
                1.722641110420227,
                7.815915584564209
            ],
            "min" : [
                -3.2278082370758057,
                -0.7613421678543091,
                -2.3178839683532715
            ],
            "type" : "VEC3"
        },
        {
            "bufferView" : 9,
            "componentType" : 5126,
            "count" : 7274,
            "type" : "VEC3"
        },
        {
            "bufferView" : 10,
            "componentType" : 5126,
            "count" : 7274,
            "type" : "VEC2"
        },
        {
            "bufferView" : 11,
            "componentType" : 5123,
            "count" : 28812,
            "type" : "SCALAR"
        },
        {
            "bufferView" : 13,
            "componentType" : 5126,
            "count" : 1940,
            "max" : [
                1.0803632736206055,
                0.5335959792137146,
                1.2513545751571655
            ],
            "min" : [
                -0.40674665570259094,
                -0.06321976333856583,
                -1.6640264987945557
            ],
            "type" : "VEC3"
        },
        {
            "bufferView" : 14,
            "componentType" : 5126,
            "count" : 1940,
            "type" : "VEC3"
        },
        {
            "bufferView" : 15,
            "componentType" : 5126,
            "count" : 1940,
            "type" : "VEC2"
        },
        {
            "bufferView" : 16,
            "componentType" : 5123,
            "count" : 3000,
            "type" : "SCALAR"
        },
        {
            "bufferView" : 17,
            "componentType" : 5126,
            "count" : 293,
            "max" : [
                3.42458438873291,
                1.3092902898788452,
                3.293966770172119
            ],
            "min" : [
                -3.4659595489501953,
                -1,
                -3.5965771675109863
            ],
            "type" : "VEC3"
        },
        {
            "bufferView" : 18,
            "componentType" : 5126,
            "count" : 293,
            "type" : "VEC3"
        },
        {
            "bufferView" : 19,
            "componentType" : 5126,
            "count" : 293,
            "type" : "VEC2"
        },
        {
            "bufferView" : 20,
            "componentType" : 5123,
            "count" : 936,
            "type" : "SCALAR"
        },
        {
            "bufferView" : 21,
            "componentType" : 5126,
            "count" : 293,
            "max" : [
                0,
                -1.0129613876342773,
                0
            ],
            "min" : [
                0,
                -1.012961506843567,
                0
            ],
            "type" : "VEC3"
        },
        {
            "bufferView" : 22,
            "componentType" : 5126,
            "count" : 293,
            "type" : "VEC3"
        },
        {
            "bufferView" : 23,
            "componentType" : 5126,
            "count" : 293,
            "max" : [
                3.42458438873291,
                1.3092902898788452,
                3.293966770172119
            ],
            "min" : [
                -3.4659595489501953,
                -1,
                -3.5965771675109863
            ],
            "type" : "VEC3"
        },
        {
            "bufferView" : 24,
            "componentType" : 5126,
            "count" : 293,
            "type" : "VEC3"
        },
        {
            "bufferView" : 25,
            "componentType" : 5126,
            "count" : 293,
            "type" : "VEC2"
        },
        {
            "bufferView" : 26,
            "componentType" : 5126,
            "count" : 293,
            "max" : [
                0,
                -0.9971727132797241,
                0
            ],
            "min" : [
                0,
                -0.9971728324890137,
                0
            ],
            "type" : "VEC3"
        },
        {
            "bufferView" : 27,
            "componentType" : 5126,
            "count" : 293,
            "type" : "VEC3"
        },
        {
            "bufferView" : 28,
            "componentType" : 5126,
            "count" : 293,
            "max" : [
                3.42458438873291,
                1.3092902898788452,
                3.293966770172119
            ],
            "min" : [
                -3.4659595489501953,
                -1,
                -3.5965771675109863
            ],
            "type" : "VEC3"
        },
        {
            "bufferView" : 29,
            "componentType" : 5126,
            "count" : 293,
            "type" : "VEC3"
        },
        {
            "bufferView" : 30,
            "componentType" : 5126,
            "count" : 293,
            "type" : "VEC2"
        },
        {
            "bufferView" : 31,
            "componentType" : 5126,
            "count" : 293,
            "max" : [
                0,
                -0.9799712896347046,
                0
            ],
            "min" : [
                0,
                -0.9799713492393494,
                0
            ],
            "type" : "VEC3"
        },
        {
            "bufferView" : 32,
            "componentType" : 5126,
            "count" : 293,
            "type" : "VEC3"
        }
    ],
    "bufferViews" : [
        {
            "buffer" : 0,
            "byteLength" : 24576,
            "byteOffset" : 0
        },
        {
            "buffer" : 0,
            "byteLength" : 24576,
            "byteOffset" : 24576
        },
        {
            "buffer" : 0,
            "byteLength" : 16384,
            "byteOffset" : 49152
        },
        {
            "buffer" : 0,
            "byteLength" : 6480,
            "byteOffset" : 65536
        },
        {
            "buffer" : 0,
            "byteLength" : 27840,
            "byteOffset" : 72016
        },
        {
            "buffer" : 0,
            "byteLength" : 27840,
            "byteOffset" : 99856
        },
        {
            "buffer" : 0,
            "byteLength" : 18560,
            "byteOffset" : 127696
        },
        {
            "buffer" : 0,
            "byteLength" : 11088,
            "byteOffset" : 146256
        },
        {
            "buffer" : 0,
            "byteLength" : 87288,
            "byteOffset" : 157344
        },
        {
            "buffer" : 0,
            "byteLength" : 87288,
            "byteOffset" : 244632
        },
        {
            "buffer" : 0,
            "byteLength" : 58192,
            "byteOffset" : 331920
        },
        {
            "buffer" : 0,
            "byteLength" : 57624,
            "byteOffset" : 390112
        },
        {
            "buffer" : 0,
            "byteLength" : 176300,
            "byteOffset" : 447736
        },
        {
            "buffer" : 0,
            "byteLength" : 23280,
            "byteOffset" : 624036
        },
        {
            "buffer" : 0,
            "byteLength" : 23280,
            "byteOffset" : 647316
        },
        {
            "buffer" : 0,
            "byteLength" : 15520,
            "byteOffset" : 670596
        },
        {
            "buffer" : 0,
            "byteLength" : 6000,
            "byteOffset" : 686116
        },
        {
            "buffer" : 0,
            "byteLength" : 3516,
            "byteOffset" : 692116
        },
        {
            "buffer" : 0,
            "byteLength" : 3516,
            "byteOffset" : 695632
        },
        {
            "buffer" : 0,
            "byteLength" : 2344,
            "byteOffset" : 699148
        },
        {
            "buffer" : 0,
            "byteLength" : 1872,
            "byteOffset" : 701492
        },
        {
            "buffer" : 0,
            "byteLength" : 3516,
            "byteOffset" : 703364
        },
        {
            "buffer" : 0,
            "byteLength" : 3516,
            "byteOffset" : 706880
        },
        {
            "buffer" : 0,
            "byteLength" : 3516,
            "byteOffset" : 710396
        },
        {
            "buffer" : 0,
            "byteLength" : 3516,
            "byteOffset" : 713912
        },
        {
            "buffer" : 0,
            "byteLength" : 2344,
            "byteOffset" : 717428
        },
        {
            "buffer" : 0,
            "byteLength" : 3516,
            "byteOffset" : 719772
        },
        {
            "buffer" : 0,
            "byteLength" : 3516,
            "byteOffset" : 723288
        },
        {
            "buffer" : 0,
            "byteLength" : 3516,
            "byteOffset" : 726804
        },
        {
            "buffer" : 0,
            "byteLength" : 3516,
            "byteOffset" : 730320
        },
        {
            "buffer" : 0,
            "byteLength" : 2344,
            "byteOffset" : 733836
        },
        {
            "buffer" : 0,
            "byteLength" : 3516,
            "byteOffset" : 736180
        },
        {
            "buffer" : 0,
            "byteLength" : 3516,
            "byteOffset" : 739696
        }
    ],
    "buffers" : [
        {
            "byteLength" : 743212,
            "uri" : "data:application/octet-stream;base64,"
        }
    ]
}
